<svg id="Layer_1" data-name="Layer 1" xmlns="http://www.w3.org/2000/svg" viewBox="0 0 13.6 13.6"><defs><style>.cls-1{fill:#be1e2d;}.cls-2{fill:#fff;}</style></defs><path class="cls-1" d="M231.62,269.49H221.26a1.61,1.61,0,0,1-1.62-1.62V257.51a1.61,1.61,0,0,1,1.62-1.62h10.36a1.62,1.62,0,0,1,1.62,1.62v10.36a1.62,1.62,0,0,1-1.62,1.62" transform="translate(-219.64 -255.89)"/><polygon class="cls-2" points="7.68 5.58 7.72 5.57 7.72 4.92 8.33 4.77 8.33 5.47 8.83 5.39 8.84 4.79 8.34 4.68 7.68 4.86 7.68 5.58"/><polygon class="cls-2" points="9.56 5.08 9.51 5.09 9.51 4.38 8.92 4.29 8.26 4.47 8.26 4.68 8.3 4.67 8.3 4.53 8.9 4.37 8.9 5.37 10.81 5.06 11.41 4.96 10.17 5 10.17 3.88 10.76 4.72 10.76 4.95 10.81 4.95 10.81 3.98 10.15 3.8 9.56 3.89 9.56 5.08"/><path class="cls-2" d="M230.94,261l-3,.63,2.26-.35v.05l-.57.1v.08l-1.42.25,1.73-.12-1.67.25-1.71-.12V260H225.2v5.9h1.38v-2.25H229v2.25h1.37v-3.55L231,261Zm-4.36,1.35v-.49l3.75.49h-3.75Z" transform="translate(-219.64 -255.89)"/><path class="cls-2" d="M226.89,258.72s0,0,0,0l.26-.23.83.05-.19.8s0,.06.06,0l.59-.82.65-.05c.12,0,.16-.08.16-.14s0-.13-.16-.15l-.64-.05-.59-.83a0,0,0,0,0-.06,0l.19.8-.84,0-.26-.24s0,0,0,0l.15.36Z" transform="translate(-219.64 -255.89)"/><path class="cls-2" d="M223.52,264.63a4.3,4.3,0,0,1,.16-3.72,5.45,5.45,0,0,1,3.24-2.54,4.56,4.56,0,0,0-2.28.41,4.86,4.86,0,0,0-2.4,6.38,4.69,4.69,0,0,0,8.12.94,6.18,6.18,0,0,1-2,.87,4.27,4.27,0,0,1-4.86-2.34" transform="translate(-219.64 -255.89)"/></svg>