<?xml version="1.0" encoding="utf-8"?>
<!-- Generator: Adobe Illustrator 26.0.1, SVG Export Plug-In . SVG Version: 6.00 Build 0)  -->
<svg version="1.1" id="Layer_1" xmlns="http://www.w3.org/2000/svg" xmlns:xlink="http://www.w3.org/1999/xlink" x="0px" y="0px"
	 viewBox="0 0 165 51" style="enable-background:new 0 0 165 51;" xml:space="preserve">
<style type="text/css">
	.st0{fill:#EF3F3D;}
	.st1{fill:#151515;}
	.st2{fill:#6B6B6B;}
	.st3{fill:#010101;}
</style>
<g>
	<g>
		<path class="st0" d="M317.1,26.37c-0.43,0.64-0.74,1.09-1.04,1.54c-2.48,3.68-2.18,8.31,0.75,11.55
			c2.88,3.18,7.61,3.97,11.43,1.91c3.79-2.04,5.67-6.45,4.53-10.65c-1.11-4.12-4.96-6.79-9.39-6.81c-3.64-0.02-7.35,0.04-10.91-0.6
			c-7.34-1.33-11.81-5.91-12.8-12.4c-0.06-0.41-0.01-0.83-0.01-1.6c6.44,6.06,14.54,7.01,22.46,8.49c5.12,0.96,10.15,2.18,13.74,6.7
			c4.12-5.11,9.98-6.03,15.76-7.07c7.29-1.31,14.57-2.59,20.61-8.26c-0.35,4.79-2.04,8.32-5.5,10.93
			c-3.79,2.86-8.21,3.75-12.82,3.96c-1.7,0.08-3.41-0.02-5.11-0.1c-4.67-0.22-8.63,2.48-9.81,6.71c-1.16,4.18,0.69,8.61,4.47,10.68
			c3.85,2.11,8.68,1.29,11.57-1.98c2.92-3.29,3.1-7.94,0.47-11.71c-0.25-0.35-0.49-0.7-0.85-1.24c1.94-0.31,3.71-0.67,5.5-0.81
			c0.39-0.03,1.01,0.66,1.23,1.16c2.43,5.33,2.08,10.51-1.4,15.22c-3.52,4.75-8.39,6.72-14.28,5.89c-4-0.56-7.17-2.63-9.89-6.04
			c-0.52,0.64-0.94,1.26-1.46,1.78c-5.09,5.14-12.92,5.94-18.91,1.95c-5.9-3.93-8.17-11.51-5.49-18.07c0.61-1.5,1.3-2.28,3.07-1.73
			C314.27,26.14,315.61,26.16,317.1,26.37z"/>
		<path class="st1" d="M335.56,21.38c-4.2-3.89-9.83-4.82-15.42-5.87c-0.37-0.07-0.75-0.12-1.12-0.19c-3.16-0.6-3.11-0.6-3.38-3.72
			c-0.05-0.57-0.61-1.34-1.13-1.57c-1.3-0.57-2.72-0.89-4.42-1.4c0.52,2.01,0.97,3.74,1.48,5.71c-0.7-0.15-1.12-0.21-1.51-0.33
			c-2.64-0.82-2.72-0.85-1.81-3.53c0.66-1.92-0.06-2.84-1.91-3.51c1.53-0.48,3.06-0.96,4.59-1.44c7.82-2.44,15.64-4.9,23.48-7.31
			c0.74-0.23,1.65-0.37,2.35-0.15c9.34,2.86,18.67,5.78,27.99,8.7c0.21,0.07,0.41,0.2,1.04,0.5c-2.87,0.91-5.32,1.81-7.84,2.45
			c-1.51,0.38-2.17,1.06-1.89,2.6c0.34,1.89-0.48,2.55-2.36,2.87c-3.78,0.64-7.56,1.43-11.21,2.59
			C340.16,18.55,338.06,20.07,335.56,21.38z"/>
		<path class="st1" d="M323.84,36.57c-1.88,0.05-3.42-1.38-3.49-3.23c-0.07-1.94,1.45-3.52,3.39-3.52c1.85,0,3.39,1.5,3.41,3.33
			C327.18,35,325.7,36.53,323.84,36.57z"/>
		<path class="st1" d="M351.43,33.27c-0.03,1.85-1.54,3.3-3.43,3.29c-1.89-0.01-3.37-1.48-3.38-3.34c-0.02-1.9,1.61-3.47,3.53-3.4
			C350.01,29.89,351.46,31.41,351.43,33.27z"/>
		<path class="st2" d="M335.89,43.7c1.07,0.96,2,1.8,3.04,2.73c-1.02,0.95-2.01,1.88-2.96,2.77c-0.95-0.95-1.9-1.91-2.93-2.93
			C333.88,45.52,334.83,44.65,335.89,43.7z"/>
	</g>
</g>
<g>
	<g>
		<path class="st0" d="M213.45,24.7c-0.27,0.39-0.46,0.67-0.64,0.95c-1.53,2.27-1.34,5.12,0.46,7.12c1.77,1.96,4.69,2.45,7.05,1.18
			c2.34-1.26,3.49-3.98,2.79-6.57c-0.68-2.54-3.06-4.19-5.79-4.2c-2.25-0.01-4.53,0.03-6.73-0.37c-4.52-0.82-7.28-3.64-7.89-7.65
			c-0.04-0.25,0-0.51,0-0.99c3.97,3.74,8.96,4.32,13.85,5.24c3.16,0.59,6.26,1.35,8.47,4.13c2.54-3.15,6.16-3.71,9.72-4.36
			c4.49-0.81,8.98-1.6,12.71-5.09c-0.22,2.95-1.26,5.13-3.39,6.74c-2.33,1.76-5.06,2.31-7.9,2.44c-1.05,0.05-2.1-0.01-3.15-0.06
			c-2.88-0.14-5.32,1.53-6.05,4.14c-0.72,2.58,0.43,5.31,2.75,6.59c2.37,1.3,5.35,0.79,7.14-1.22c1.8-2.03,1.91-4.9,0.29-7.22
			c-0.15-0.22-0.3-0.43-0.53-0.76c1.2-0.19,2.29-0.41,3.39-0.5c0.24-0.02,0.62,0.41,0.76,0.71c1.5,3.28,1.28,6.48-0.87,9.38
			c-2.17,2.93-5.17,4.14-8.8,3.63c-2.47-0.35-4.42-1.62-6.1-3.72c-0.32,0.4-0.58,0.77-0.9,1.1c-3.14,3.17-7.97,3.66-11.66,1.2
			c-3.64-2.42-5.04-7.1-3.39-11.14c0.38-0.92,0.8-1.41,1.89-1.06C211.7,24.55,212.53,24.56,213.45,24.7z"/>
		<path class="st1" d="M224.83,21.62c-2.59-2.4-6.06-2.97-9.5-3.62c-0.23-0.04-0.46-0.07-0.69-0.12c-1.95-0.37-1.92-0.37-2.08-2.29
			c-0.03-0.35-0.38-0.82-0.7-0.97c-0.8-0.35-1.68-0.55-2.72-0.86c0.32,1.24,0.6,2.31,0.91,3.52c-0.43-0.09-0.69-0.13-0.93-0.2
			c-1.63-0.51-1.68-0.53-1.12-2.17c0.4-1.18-0.04-1.75-1.18-2.16c0.94-0.3,1.89-0.59,2.83-0.89c4.82-1.51,9.64-3.02,14.47-4.51
			c0.45-0.14,1.01-0.23,1.45-0.1c5.76,1.76,11.51,3.57,17.26,5.36c0.13,0.04,0.25,0.12,0.64,0.31c-1.77,0.56-3.28,1.12-4.83,1.51
			c-0.93,0.24-1.34,0.66-1.17,1.6c0.21,1.17-0.29,1.57-1.46,1.77c-2.33,0.4-4.66,0.88-6.91,1.6
			C227.67,19.88,226.37,20.81,224.83,21.62z"/>
		<path class="st1" d="M217.61,30.98c-1.16,0.03-2.11-0.85-2.15-1.99c-0.04-1.2,0.89-2.17,2.09-2.17c1.14,0,2.09,0.93,2.1,2.05
			C219.66,30.02,218.75,30.95,217.61,30.98z"/>
		<path class="st1" d="M234.61,28.95c-0.02,1.14-0.95,2.03-2.11,2.03c-1.16-0.01-2.08-0.91-2.08-2.06
			c-0.01-1.17,0.99-2.14,2.18-2.09C233.74,26.86,234.63,27.8,234.61,28.95z"/>
		<path class="st2" d="M225.03,35.38c0.66,0.59,1.23,1.11,1.88,1.68c-0.63,0.59-1.24,1.16-1.82,1.71c-0.58-0.58-1.17-1.17-1.81-1.81
			C223.79,36.5,224.38,35.97,225.03,35.38z"/>
	</g>
</g>
<g>
	<g>
		<path class="st0" d="M16.36,27.22c-0.31,0.46-0.54,0.79-0.76,1.12c-1.8,2.67-1.58,6.04,0.55,8.39c2.09,2.31,5.53,2.88,8.3,1.39
			c2.75-1.48,4.12-4.69,3.29-7.74c-0.81-2.99-3.61-4.93-6.82-4.95c-2.65-0.01-5.34,0.03-7.93-0.44c-5.33-0.97-8.58-4.29-9.3-9.01
			c-0.05-0.3-0.01-0.61-0.01-1.17c4.68,4.4,10.56,5.09,16.32,6.17c3.72,0.7,7.38,1.59,9.98,4.87c2.99-3.71,7.25-4.38,11.45-5.13
			c5.29-0.95,10.58-1.88,14.97-6c-0.25,3.48-1.48,6.05-3.99,7.94c-2.75,2.07-5.97,2.73-9.31,2.88c-1.23,0.06-2.47-0.02-3.71-0.08
			c-3.39-0.16-6.27,1.8-7.13,4.88c-0.84,3.04,0.5,6.26,3.25,7.76c2.8,1.54,6.3,0.94,8.41-1.44c2.12-2.39,2.26-5.77,0.34-8.51
			c-0.18-0.26-0.35-0.51-0.62-0.9c1.41-0.22,2.7-0.49,4-0.59c0.28-0.02,0.73,0.48,0.89,0.84c1.76,3.87,1.51,7.64-1.02,11.05
			c-2.55,3.45-6.1,4.88-10.37,4.28c-2.91-0.41-5.21-1.91-7.19-4.39c-0.38,0.47-0.69,0.91-1.06,1.29c-3.69,3.73-9.39,4.31-13.74,1.42
			c-4.29-2.86-5.94-8.36-3.99-13.13c0.44-1.09,0.94-1.66,2.23-1.25C14.3,27.05,15.27,27.06,16.36,27.22z"/>
		<path class="st1" d="M29.77,23.59c-3.05-2.83-7.14-3.5-11.2-4.26c-0.27-0.05-0.54-0.09-0.81-0.14c-2.3-0.43-2.26-0.44-2.46-2.7
			c-0.04-0.41-0.44-0.97-0.82-1.14c-0.95-0.42-1.98-0.64-3.21-1.02c0.38,1.46,0.71,2.72,1.08,4.15c-0.51-0.11-0.81-0.15-1.1-0.24
			c-1.92-0.6-1.98-0.62-1.31-2.56c0.48-1.39-0.04-2.07-1.39-2.55c1.11-0.35,2.22-0.7,3.34-1.05c5.68-1.78,11.36-3.56,17.05-5.31
			c0.54-0.16,1.2-0.27,1.71-0.11c6.79,2.08,13.56,4.2,20.34,6.32c0.16,0.05,0.3,0.14,0.76,0.36c-2.09,0.66-3.87,1.32-5.7,1.78
			c-1.1,0.28-1.58,0.77-1.37,1.89c0.25,1.37-0.35,1.85-1.72,2.09c-2.74,0.47-5.49,1.04-8.14,1.88
			C33.11,21.54,31.58,22.63,29.77,23.59z"/>
		<path class="st1" d="M21.25,34.63c-1.36,0.03-2.48-1.01-2.53-2.35c-0.05-1.41,1.05-2.55,2.47-2.55c1.34,0,2.46,1.09,2.48,2.42
			C23.68,33.49,22.61,34.59,21.25,34.63z"/>
		<path class="st1" d="M41.3,32.23c-0.02,1.34-1.12,2.4-2.49,2.39c-1.37-0.01-2.45-1.07-2.46-2.43c-0.01-1.38,1.17-2.52,2.56-2.47
			C40.27,29.77,41.32,30.88,41.3,32.23z"/>
		<path class="st2" d="M30.01,39.8c0.78,0.7,1.45,1.3,2.21,1.98c-0.74,0.69-1.46,1.37-2.15,2.01c-0.69-0.69-1.38-1.38-2.13-2.13
			C28.54,41.12,29.24,40.5,30.01,39.8z"/>
	</g>
	<g>
		<g>
			<path class="st3" d="M95.67,14.88v9.44h-3.3v-9.44c0-2.88-2.34-5.26-5.18-5.26c-2.88,0-5.22,2.38-5.22,5.26v9.44h-3.3v-9.44
				c0-2.88-2.3-5.26-5.18-5.26c-2.84,0-5.18,2.38-5.18,5.26v9.44h-3.3V6.74h3.3v1.69c1.5-1.15,3.3-2.03,5.18-2.03
				c2.26,0,4.41,1,6.02,2.61c0.31,0.31,0.58,0.61,0.81,0.96c0.27-0.35,0.54-0.65,0.84-0.96c1.61-1.61,3.76-2.61,6.02-2.61
				c2.26,0,4.37,0.84,5.98,2.46C94.78,10.46,95.67,12.57,95.67,14.88z"/>
			<path class="st3" d="M113.77,6.74h3.3v17.57h-3.3v-2.03c-1.65,1.38-3.72,2.42-5.91,2.42c-2.46,0-4.76-0.92-6.52-2.65
				c-1.73-1.76-2.69-4.07-2.69-6.52s0.96-4.76,2.69-6.52c1.76-1.73,4.07-2.65,6.52-2.65c2.19,0,4.26,1.04,5.91,2.42V6.74z
				 M113.77,15.53c0-3.26-2.65-5.95-5.91-5.95c-3.26,0-5.91,2.69-5.91,5.95c0,3.26,2.65,5.95,5.91,5.95
				C111.13,21.47,113.77,18.79,113.77,15.53z"/>
			<path class="st3" d="M135.18,6.74h3.3v17.57h-3.3v-2.03c-1.65,1.38-3.72,2.42-5.91,2.42c-2.46,0-4.76-0.92-6.52-2.65
				c-1.73-1.76-2.69-4.07-2.69-6.52s0.96-4.76,2.69-6.52c1.76-1.73,4.07-2.65,6.52-2.65c2.19,0,4.26,1.04,5.91,2.42V6.74z
				 M135.18,15.53c0-3.26-2.65-5.95-5.91-5.95c-3.26,0-5.91,2.69-5.91,5.95c0,3.26,2.65,5.95,5.91,5.95
				C132.53,21.47,135.18,18.79,135.18,15.53z"/>
			<path class="st3" d="M160.15,14.88v9.44h-3.3v-9.44c0-2.88-2.3-5.26-5.18-5.26c-2.84,0-5.18,2.38-5.18,5.26v9.44h-3.3V6.74h3.3
				v1.69c1.5-1.15,3.3-2.03,5.18-2.03c2.26,0,4.41,0.84,6.02,2.46C159.27,10.46,160.15,12.57,160.15,14.88z"/>
		</g>
		<g>
			<path class="st2" d="M70.66,33.02h1.28v6.82h-1.28v-0.79C70.02,39.59,69.22,40,68.37,40c-0.95,0-1.85-0.36-2.53-1.03
				c-0.67-0.69-1.04-1.58-1.04-2.53s0.37-1.85,1.04-2.53c0.69-0.67,1.58-1.03,2.53-1.03c0.85,0,1.65,0.4,2.29,0.94V33.02z
				 M70.66,36.43c0-1.27-1.03-2.31-2.29-2.31c-1.27,0-2.29,1.04-2.29,2.31c0,1.27,1.03,2.31,2.29,2.31
				C69.64,38.74,70.66,37.7,70.66,36.43z"/>
			<path class="st2" d="M85.68,38.54c-0.12,0.15-0.24,0.3-0.37,0.43C84.64,39.64,83.74,40,82.79,40c-0.95,0-1.86-0.36-2.53-1.03
				c-0.67-0.69-1.04-1.58-1.04-2.53s0.37-1.85,1.04-2.53c0.67-0.67,1.58-1.03,2.53-1.03c0.95,0,1.85,0.36,2.52,1.03
				c0.13,0.13,0.25,0.27,0.36,0.42l-1.03,0.76c-0.42-0.57-1.09-0.95-1.85-0.95c-1.27,0-2.29,1.04-2.29,2.31
				c0,1.27,1.03,2.31,2.29,2.31c0.76,0,1.43-0.39,1.85-0.97L85.68,38.54z"/>
			<path class="st2" d="M98.06,33.02h1.28v6.82h-1.28v-0.79C97.42,39.59,96.62,40,95.77,40c-0.95,0-1.85-0.36-2.53-1.03
				c-0.67-0.69-1.04-1.58-1.04-2.53s0.37-1.85,1.04-2.53c0.69-0.67,1.58-1.03,2.53-1.03c0.85,0,1.65,0.4,2.29,0.94V33.02z
				 M98.06,36.43c0-1.27-1.03-2.31-2.29-2.31c-1.27,0-2.29,1.04-2.29,2.31c0,1.27,1.03,2.31,2.29,2.31
				C97.03,38.74,98.06,37.7,98.06,36.43z"/>
			<path class="st2" d="M112.45,28.91h1.28v10.94h-1.28v-0.79c-0.64,0.54-1.45,0.94-2.29,0.94c-0.95,0-1.85-0.36-2.53-1.03
				c-0.67-0.69-1.04-1.58-1.04-2.53s0.37-1.85,1.04-2.53c0.69-0.67,1.58-1.03,2.53-1.03c0.85,0,1.65,0.4,2.29,0.94V28.91z
				 M112.45,36.43c0-1.27-1.03-2.31-2.29-2.31c-1.27,0-2.29,1.04-2.29,2.31c0,1.27,1.03,2.31,2.29,2.31
				C111.42,38.74,112.45,37.7,112.45,36.43z"/>
			<path class="st2" d="M127.62,36.75h-5.26v0.03c0.15,1.13,1,1.98,1.98,2c0.61-0.03,1.24-0.28,1.67-0.71l1.07,0.64
				c-0.27,0.3-0.57,0.55-0.91,0.76c-0.52,0.31-1.16,0.48-1.8,0.51c-0.89,0-1.71-0.37-2.31-1.04c-0.54-0.58-0.86-1.33-0.92-2.15
				c-0.01-0.1-0.01-0.21-0.01-0.31c0-0.27,0.03-0.54,0.09-0.8c0.13-0.63,0.43-1.19,0.85-1.65c0.6-0.66,1.43-1.03,2.31-1.03
				c0.89,0,1.71,0.37,2.32,1.03c0.42,0.46,0.73,1.03,0.85,1.65C127.65,36.27,127.63,36.61,127.62,36.75z M126.28,35.67l-0.01-0.03
				c-0.3-0.88-1.06-1.48-1.89-1.48c-0.82,0-1.58,0.6-1.89,1.48l-0.01,0.03H126.28z"/>
			<path class="st2" d="M146.63,36.18v3.67h-1.28v-3.67c0-1.12-0.91-2.04-2.01-2.04c-1.12,0-2.03,0.92-2.03,2.04v3.67h-1.28v-3.67
				c0-1.12-0.89-2.04-2.01-2.04c-1.1,0-2.01,0.92-2.01,2.04v3.67h-1.28v-6.82h1.28v0.66c0.58-0.45,1.28-0.79,2.01-0.79
				c0.88,0,1.71,0.39,2.34,1.01c0.12,0.12,0.22,0.24,0.31,0.37c0.1-0.13,0.21-0.25,0.33-0.37c0.63-0.63,1.46-1.01,2.34-1.01
				c0.88,0,1.7,0.33,2.32,0.95C146.29,34.47,146.63,35.29,146.63,36.18z"/>
			<path class="st2" d="M156.15,43.75h-1.39l1.59-3.9l-2.77-6.82h1.39l2.07,5.13l2.07-5.13h1.39L156.15,43.75z"/>
		</g>
	</g>
</g>
</svg>
