<svg xmlns="http://www.w3.org/2000/svg" width="24" height="21.6" viewBox="0 0 24 21.6">
  <g id="Group_18" data-name="Group 18" transform="translate(-349 -425)">
    <path id="Vector" d="M12.637,4.349A1.609,1.609,0,0,0,11.1,3.2h-.7A3.2,3.2,0,0,0,4,3.2H3.3A1.609,1.609,0,0,0,1.763,4.348L.073,10.094A1.8,1.8,0,0,0,1.8,12.4H12.6a1.8,1.8,0,0,0,1.725-2.306ZM4.8,3.2a2.4,2.4,0,1,1,4.8,0V6.234l-.4.4-.4-.4V3.2a1.6,1.6,0,0,0-3.2,0V6.234l-.4.4-.4-.4ZM8,3.2H6.4A.8.8,0,1,1,8,3.2Zm4.6,8.4H1.8a1,1,0,0,1-.958-1.28L2.53,4.574A.8.8,0,0,1,3.3,4H4V6.4a.4.4,0,0,0,.117.283l.8.8a.4.4,0,0,0,.566,0l.8-.8A.4.4,0,0,0,6.4,6.4V4H8V6.4a.4.4,0,0,0,.117.283l.8.8a.4.4,0,0,0,.566,0l.8-.8A.4.4,0,0,0,10.4,6.4V4h.7a.8.8,0,0,1,.767.574l1.69,5.745A1,1,0,0,1,12.6,11.6Z" transform="translate(358.6 434.2)" fill="#ff8400"/>
    <path id="Vector-2" data-name="Vector" d="M0,0H1.024V.8H0Z" transform="translate(353.587 441.713) rotate(-77.472)" fill="#ff8400"/>
    <path id="Vector-3" data-name="Vector" d="M.07,21.426A.4.4,0,0,0,.4,21.6H8.8v-.8H4.5l.336-1.513-.781-.174L3.679,20.8H.985L6.274,7.2H6.7l-1.67,7.513.781.174L7.521,7.2H8V14h.8V7.2h.479l1.175,5.287.781-.174L10.1,7.2h.428l1.612,4.145.746-.29L11.225,6.79l1.554-4.663a.4.4,0,0,0-.059-.367L11.887.65A1.624,1.624,0,0,0,9.32.609L8.4,1.76,7.48.609A1.624,1.624,0,0,0,4.913.65L4.08,1.76a.4.4,0,0,0-.059.367L5.575,6.79.027,21.055a.4.4,0,0,0,.043.371ZM4.846,2.072l.707-.943a.824.824,0,0,1,1.3-.02L8.088,2.65a.4.4,0,0,0,.625,0L9.945,1.109a.824.824,0,0,1,1.3.02l.707.943L10.512,6.4H6.288Z" transform="translate(349 425)" fill="#ff8400"/>
    <path id="Vector-4" data-name="Vector" d="M0,0H.8V4.8H0Z" transform="translate(357 439.8)" fill="#ff8400"/>
  </g>
</svg>
