<?xml version="1.0" encoding="utf-8"?>
<!-- Generator: Adobe Illustrator 27.0.0, SVG Export Plug-In . SVG Version: 6.00 Build 0)  -->
<svg version="1.1" id="Layer_1" xmlns="http://www.w3.org/2000/svg" xmlns:xlink="http://www.w3.org/1999/xlink" x="0px" y="0px"
	 viewBox="0 0 32 32" style="enable-background:new 0 0 32 32;" xml:space="preserve">
<style type="text/css">
	.st0{fill:#FF0000;}
</style>
<g>
	<g>
		<path class="st0" d="M4.26,8.2c0.3,0,0.5,0.2,0.52,0.55c0.03,0.48,0.15,0.92,0.41,1.32c0.12,0.19,0.19,0.25,0.34,0
			C5.8,9.62,6.1,9.19,6.38,8.74c0.15-0.25,0.35-0.35,0.64-0.35c5.98,0,11.96,0,17.95,0c0.3,0,0.51,0.11,0.67,0.37
			c1.47,2.3,2.93,4.6,4.41,6.89c0.22,0.34,0.16,0.6-0.11,0.88c-1.61,1.71-3.2,3.44-4.82,5.15c-0.2,0.21-0.2,0.33,0,0.53
			c0.69,0.68,1.51,1.04,2.47,1.08c0.31,0.01,0.51,0.16,0.53,0.49c0.02,0.3-0.18,0.5-0.52,0.55c-0.06,0.01-0.12,0.01-0.18,0.01
			c-1.17,0.08-2.08,0.62-2.72,1.6c-0.31,0.48-0.49,1.01-0.52,1.59c0,0.09-0.01,0.17-0.02,0.26c-0.04,0.31-0.21,0.5-0.53,0.5
			c-0.31-0.01-0.47-0.19-0.5-0.49c-0.04-0.44-0.08-0.88-0.26-1.3c-0.18-0.44-0.44-0.82-0.76-1.16c-0.15-0.17-0.24-0.16-0.4,0.01
			c-1.33,1.45-2.68,2.89-4.02,4.33c-0.39,0.42-0.79,0.85-1.18,1.27c-0.38,0.41-0.64,0.41-1.01,0.01c-3.1-3.33-6.21-6.66-9.31-10
			c-1.37-1.47-2.74-2.94-4.1-4.4c-0.36-0.39-0.37-0.51-0.08-0.97c0.42-0.65,0.83-1.31,1.26-1.95c0.11-0.16,0.1-0.27-0.02-0.42
			c-0.48-0.61-1.1-0.92-1.86-0.98c-0.41-0.03-0.62-0.2-0.61-0.53c0.01-0.32,0.21-0.49,0.63-0.51c1.29-0.08,2.27-1.06,2.35-2.36
			C3.77,8.42,3.95,8.2,4.26,8.2z M15.96,28.85c0.03,0,0.05,0,0.08,0c1.27-4.08,2.53-8.16,3.81-12.26c-2.58,0-5.13,0-7.7,0
			C13.43,20.69,14.7,24.77,15.96,28.85z M14.71,28.58c0.07-0.15,0.01-0.24-0.02-0.33c-1.18-3.79-2.36-7.59-3.53-11.39
			c-0.07-0.23-0.17-0.3-0.4-0.3c-2.3,0.01-4.6,0-6.9,0.01c-0.09,0-0.2-0.06-0.26,0.07C7.29,20.62,10.99,24.59,14.71,28.58z
			 M28.49,16.57c-0.22,0-0.35,0-0.48,0c-2.22,0-4.43,0.01-6.65-0.01c-0.34,0-0.46,0.11-0.55,0.41c-1.19,3.86-2.39,7.72-3.58,11.57
			c0.02,0.02,0.04,0.03,0.06,0.05c1.24-1.33,2.47-2.65,3.73-4c-0.46-0.21-0.9-0.25-1.35-0.28c-0.31-0.02-0.5-0.2-0.49-0.53
			c0.01-0.31,0.19-0.46,0.49-0.49c0.11-0.01,0.22-0.02,0.33-0.03c0.93-0.08,1.69-0.49,2.3-1.19c0.53-0.61,0.8-1.31,0.83-2.12
			c0.01-0.27,0.07-0.52,0.37-0.62c0.34-0.11,0.63,0.11,0.68,0.52c0.04,0.37,0.04,0.74,0.23,1.11C25.75,19.5,27.08,18.07,28.49,16.57
			z M16,9.88c-1.22,1.9-2.4,3.75-3.58,5.59c0.06,0.04,0.08,0.06,0.1,0.06c2.28,0,4.55,0,6.83,0.01c0.27,0,0.22-0.09,0.12-0.25
			c-0.49-0.76-0.98-1.53-1.47-2.29C17.34,11.97,16.69,10.95,16,9.88z M21.52,15.51c2.43,0,4.8,0,7.21,0
			c-1.21-1.89-2.4-3.74-3.6-5.63C23.91,11.77,22.73,13.62,21.52,15.51z M7.83,9.44c1.22,1.9,2.41,3.76,3.61,5.64
			c1.21-1.89,2.4-3.75,3.61-5.64C12.63,9.44,10.27,9.44,7.83,9.44z M20.56,15.08c1.21-1.9,2.4-3.75,3.6-5.63c-2.43,0-4.79,0-7.21,0
			C18.16,11.33,19.35,13.18,20.56,15.08z M6.88,9.88c-0.21,0.33-0.38,0.62-0.57,0.89c-0.13,0.18-0.04,0.23,0.11,0.28
			c0.28,0.09,0.57,0.14,0.87,0.16c0.3,0.02,0.47,0.21,0.49,0.5c0.02,0.27-0.2,0.49-0.5,0.53C5.68,12.41,5,13.1,4.78,14.75
			c-0.03,0.23-0.15,0.38-0.37,0.45c-0.21,0.06-0.38-0.01-0.53-0.16c-0.06-0.06-0.05-0.17-0.18-0.19c-0.13,0.21-0.26,0.42-0.41,0.65
			c2.42,0,4.79,0,7.2,0C9.28,13.62,8.09,11.77,6.88,9.88z M25.53,23.8c-0.83-0.46-1.43-1.08-1.89-1.88
			c-0.45,0.83-1.07,1.42-1.88,1.88c0.83,0.46,1.43,1.07,1.88,1.87C24.1,24.87,24.7,24.26,25.53,23.8z M4.27,12.86
			c0.29-0.42,0.6-0.77,0.99-1.03c0.12-0.08,0.16-0.14,0.01-0.23c-0.4-0.26-0.71-0.62-1.01-1.04c-0.3,0.48-0.69,0.83-1.14,1.16
			C3.59,12.02,3.95,12.39,4.27,12.86z"/>
		<path class="st0" d="M31.24,5.87c-0.02,0.27-0.18,0.44-0.48,0.47c-0.27,0.03-0.54,0.05-0.79,0.17c-0.72,0.34-1.11,0.9-1.18,1.69
			c-0.03,0.38-0.21,0.6-0.5,0.61c-0.31,0.01-0.51-0.22-0.54-0.62C27.67,7.2,26.98,6.48,26,6.37c-0.1-0.01-0.2-0.02-0.29-0.04
			c-0.26-0.06-0.4-0.23-0.4-0.5c0-0.27,0.14-0.44,0.4-0.49C25.9,5.3,26.1,5.3,26.29,5.25c0.81-0.2,1.39-0.91,1.45-1.75
			c0.03-0.42,0.2-0.64,0.51-0.65c0.31-0.01,0.5,0.21,0.54,0.65c0.09,0.98,0.8,1.69,1.79,1.79C31.04,5.35,31.24,5.51,31.24,5.87z
			 M29.04,5.83c-0.28-0.21-0.48-0.6-0.72-0.66c-0.28-0.06-0.44,0.43-0.73,0.6c-0.02,0.01-0.04,0.05-0.06,0.08
			c0.24,0.19,0.46,0.38,0.64,0.62c0.07,0.1,0.13,0.13,0.22,0.01C28.55,6.23,28.79,6.04,29.04,5.83z"/>
		<path class="st0" d="M12.84,5.82c0,0.24-0.11,0.4-0.3,0.48c-0.21,0.09-0.41,0.05-0.58-0.11c-0.37-0.36-0.73-0.73-1.09-1.09
			C10.37,4.6,9.87,4.11,9.38,3.61c-0.3-0.3-0.33-0.6-0.09-0.83c0.24-0.23,0.51-0.2,0.8,0.09c0.84,0.84,1.68,1.68,2.53,2.53
			C12.75,5.52,12.85,5.65,12.84,5.82z"/>
		<path class="st0" d="M22.87,3.1c0,0.23-0.09,0.36-0.21,0.47c-0.86,0.86-1.72,1.72-2.58,2.58c-0.26,0.26-0.57,0.26-0.78,0.04
			c-0.2-0.21-0.2-0.51,0.04-0.75c0.86-0.87,1.73-1.74,2.6-2.61c0.17-0.17,0.36-0.26,0.6-0.16C22.76,2.77,22.86,2.93,22.87,3.1z"/>
		<path class="st0" d="M16.52,3.16c0,0.59,0,1.18,0,1.77c0,0.39-0.2,0.63-0.51,0.63c-0.31,0-0.52-0.24-0.52-0.63
			c0-1.19,0-2.39,0-3.58c0-0.4,0.2-0.62,0.53-0.61c0.31,0.01,0.5,0.22,0.5,0.6C16.52,1.96,16.52,2.56,16.52,3.16z"/>
	</g>
</g>
</svg>
