<?xml version="1.0" encoding="utf-8"?>
<!-- Generator: Adobe Illustrator 27.0.0, SVG Export Plug-In . SVG Version: 6.00 Build 0)  -->
<svg version="1.1" id="Layer_1" xmlns="http://www.w3.org/2000/svg" xmlns:xlink="http://www.w3.org/1999/xlink" x="0px" y="0px"
	 viewBox="0 0 30 30" style="enable-background:new 0 0 30 30;" xml:space="preserve">
<style type="text/css">
	.st0{fill:#ED2224;}
</style>
<g>
	<g>
		<path class="st0" d="M3.8,14.2c-0.6-0.3-0.7-0.8-0.2-1.3c4-4,7.9-8.1,11.9-12.1c0.5-0.5,0.8-0.5,1.2,0c1.9,1.9,3.7,3.8,5.6,5.7
			c0.1,0.1,0.1,0.1,0.2,0.2c0-0.6,0-1.1,0-1.7c0-0.1,0-0.2,0-0.3c0.1-0.3,0.5-0.5,0.8-0.5c0.3,0.1,0.6,0.4,0.6,0.7c0,1,0,2,0,3
			c0,0.2,0.1,0.3,0.2,0.4c1.5,1.5,3,3,4.5,4.6c0.3,0.3,0.4,0.6,0.2,0.9c-0.2,0.5-0.8,0.5-1.2,0.2c-0.5-0.5-1.1-1.1-1.6-1.6
			c-0.9-1-1.9-1.9-2.8-2.9c-2.3-2.3-4.6-4.7-6.9-7c-0.1-0.1-0.2-0.2-0.4,0C12.3,6.1,8.6,9.8,5,13.5c-0.1,0.1-0.1,0.1-0.1,0.2
			c0.4-0.1,0.8-0.2,1.2-0.2c0.1,0,0.2-0.1,0.2-0.2c3.1-3.1,6.1-6.3,9.2-9.4c0.5-0.5,0.8-0.5,1.3,0c3.1,3.2,6.3,6.4,9.4,9.6
			c0.3,0.3,0.4,0.5,0.4,0.9c0,4.5,0,9,0,13.5c0,0.2,0,0.4,0.3,0.3c0.1,0,0.2,0,0.4,0c0.4,0,0.7,0.3,0.7,0.7c0,0.4-0.3,0.7-0.7,0.7
			c-0.7,0-1.3,0-2,0c-6.6,0-13.3,0-19.9,0c-0.2,0-0.4,0-0.6-0.1c-0.2-0.2-0.4-0.4-0.3-0.7c0-0.3,0.3-0.5,0.6-0.6c0,0,0.1,0,0.1,0
			c0.2,0,0.5,0.1,0.6,0c0.1-0.1,0-0.4,0-0.6c0-1.4,0-2.9,0-4.3c0-0.2,0-0.3-0.3-0.3C3.6,22.6,2,21,1.7,19.2
			c-0.3-1.9,0.3-3.5,1.9-4.7C3.7,14.3,3.8,14.3,3.8,14.2z M7.8,13.7c0.1,0,0.1,0.1,0.1,0.1c2.3,0.8,3.6,3,3.1,5.4
			c-0.1,0.3,0,0.3,0.3,0.3c1,0,2,0,2.9,0c0.6,0,0.8,0.3,0.8,0.9c0,1.5,0,2.9,0,4.4c0,0.6-0.3,0.8-0.8,0.8c-1.4,0-2.8,0-4.2,0
			c-0.5,0-0.8-0.3-0.8-0.8c0-0.8,0-1.6,0-2.4c0-0.1,0-0.2,0-0.2c-0.3,0.2-0.6,0.4-0.9,0.5c-0.3,0.1-0.7,0.3-1,0.3
			c-0.2,0-0.3,0.1-0.3,0.3c0,1.6,0,3.1,0,4.7c0,0.2,0.1,0.3,0.3,0.3c2.9,0,5.8,0,8.7,0c0.2,0,0.3,0,0.3-0.3c0-2.5,0-5,0-7.4
			c0-0.7,0.2-0.9,1-0.9c1.8,0,3.5,0,5.3,0c0.7,0,0.9,0.3,0.9,0.9c0,2.5,0,5,0,7.5c0,0.2,0,0.3,0.3,0.3c0.4,0,0.7,0,1.1,0
			c0.2,0,0.3-0.1,0.3-0.3c0-4.4,0-8.8,0-13.2c0-0.2-0.1-0.3-0.2-0.5c-2.9-2.9-5.8-5.8-8.6-8.8c-0.1-0.1-0.2-0.2-0.4,0
			c-1.6,1.6-3.2,3.3-4.8,4.9C10,11.4,8.9,12.6,7.8,13.7z M17.8,24.5c0,1.1,0,2.3,0,3.4c0,0.2,0,0.3,0.2,0.3c1.3,0,2.6,0,3.8,0
			c0.2,0,0.3-0.1,0.3-0.3c0-2.3,0-4.5,0-6.8c0-0.2,0-0.3-0.3-0.3c-1.3,0-2.6,0-3.8,0c-0.2,0-0.2,0.1-0.2,0.3
			C17.8,22.3,17.8,23.4,17.8,24.5z M9.7,18.3c-0.1,0.1-0.2,0.1-0.3,0.2c-1.5,0.8-3.4-0.4-3.4-2.1c0-0.3,0.3-0.6,0.6-0.7
			c0.3-0.1,0.6,0.1,0.8,0.4c0.1,0.1,0.1,0.2,0.1,0.3c0,0.4,0.3,0.8,0.8,0.9c0.4,0.1,0.8-0.1,1-0.5c0.1-0.1,0.1-0.3,0-0.4
			c-0.6-1.1-2.1-1.7-3.3-1.5c-1.8,0.3-3.1,1.9-2.9,3.7c0,0.3,0.1,0.6,0.3,0.8c0.3,0.3,0.6,0.4,0.9,0.3c0.4-0.1,0.6-0.4,0.6-0.9
			c0-0.4,0.4-0.7,0.7-0.7c0.4,0,0.7,0.3,0.7,0.8c0,0.8-0.4,1.5-1.1,1.9C5,21,4.8,21,4.6,21.1c1.2,0.6,2.3,0.7,3.5,0
			C9.1,20.5,9.7,19.6,9.7,18.3z M13.7,22.6c0-0.5,0-1,0-1.5c0-0.1,0-0.2-0.2-0.2c-0.9,0-1.8,0-2.7,0c-0.1,0-0.2,0-0.2,0.2
			c0,1,0,1.9,0,2.9c0,0.2,0,0.2,0.2,0.2c0.9,0,1.8,0,2.7,0c0.2,0,0.2,0,0.2-0.2C13.7,23.5,13.7,23,13.7,22.6z M4.8,13.7
			C4.8,13.7,4.8,13.7,4.8,13.7C4.8,13.7,4.8,13.7,4.8,13.7C4.8,13.7,4.8,13.7,4.8,13.7C4.8,13.7,4.8,13.7,4.8,13.7z"/>
		<path class="st0" d="M16.1,9.5c1.5,0,2.7,1.2,2.7,2.7c0,1.5-1.2,2.7-2.7,2.7c-1.5,0-2.7-1.2-2.7-2.7C13.4,10.7,14.6,9.5,16.1,9.5z
			 M16.1,13.5c0.7,0,1.3-0.5,1.3-1.3c0-0.7-0.6-1.3-1.3-1.3c-0.7,0-1.3,0.6-1.3,1.3C14.8,13,15.3,13.5,16.1,13.5z"/>
	</g>
</g>
</svg>
