<svg xmlns="http://www.w3.org/2000/svg" width="19.332" height="23.198" viewBox="0 0 19.332 23.198">
  <g id="Group_16" data-name="Group 16" transform="translate(-351 -339)">
    <path id="Vector" d="M17.4,0H1.933A1.935,1.935,0,0,0,0,1.933V20.492a1.16,1.16,0,0,0,1.16,1.16v1.16a.387.387,0,0,0,.387.387H17.786a.387.387,0,0,0,.387-.387v-1.16a1.16,1.16,0,0,0,1.16-1.16V1.933A1.936,1.936,0,0,0,17.4,0ZM1.933.773H17.4a1.16,1.16,0,0,1,1.16,1.16V4.64H.773V1.933A1.16,1.16,0,0,1,1.933.773ZM17.4,22.425H1.933v-.773H17.4Zm.773-1.547H1.16a.387.387,0,0,1-.387-.387V5.413H18.559V20.492a.387.387,0,0,1-.387.387Z" transform="translate(351 339)" fill="#ff8400"/>
    <path id="Vector-2" data-name="Vector" d="M.387,2.32h4.64a.387.387,0,0,0,.387-.387V.387A.387.387,0,0,0,5.026,0H.387A.387.387,0,0,0,0,.387V1.933A.387.387,0,0,0,.387,2.32ZM.773.773H4.64v.773H.773Z" transform="translate(352.547 340.547)" fill="#ff8400"/>
    <path id="Vector-3" data-name="Vector" d="M1.16,2.32A1.16,1.16,0,1,0,0,1.16,1.16,1.16,0,0,0,1.16,2.32Zm0-1.547a.387.387,0,1,1-.387.387A.387.387,0,0,1,1.16.773Z" transform="translate(358.733 340.547)" fill="#ff8400"/>
    <path id="Vector-4" data-name="Vector" d="M1.16,2.32A1.16,1.16,0,1,0,0,1.16,1.16,1.16,0,0,0,1.16,2.32Zm0-1.547a.387.387,0,1,1-.387.387A.387.387,0,0,1,1.16.773Z" transform="translate(361.826 340.547)" fill="#ff8400"/>
    <path id="Vector-5" data-name="Vector" d="M.387.773H1.16A.387.387,0,0,0,1.16,0H.387a.387.387,0,1,0,0,.773Z" transform="translate(364.919 341.32)" fill="#ff8400"/>
    <path id="Vector-6" data-name="Vector" d="M.387.773H1.16A.387.387,0,1,0,1.16,0H.387a.387.387,0,1,0,0,.773Z" transform="translate(367.239 341.32)" fill="#ff8400"/>
    <path id="Vector-7" data-name="Vector" d="M6.186,0a6.186,6.186,0,1,0,6.186,6.186A6.186,6.186,0,0,0,6.186,0Zm0,11.6A5.413,5.413,0,1,1,11.6,6.186,5.413,5.413,0,0,1,6.186,11.6Z" transform="translate(354.48 345.96)" fill="#ff8400"/>
    <path id="Vector-8" data-name="Vector" d="M5.026,0A5.021,5.021,0,0,0,.378,6.932c0,.008,0,.016,0,.024s.01.015.014.024a5.022,5.022,0,0,0,9.481-.653.149.149,0,0,0,0-.019A5.007,5.007,0,0,0,5.026,0Zm0,.773a4.243,4.243,0,0,1,4.15,5.173,5.968,5.968,0,0,0-.593.232,3.508,3.508,0,0,1-1.624.394,2.612,2.612,0,0,1-1.374-.348A3.378,3.378,0,0,0,3.867,5.8a10.157,10.157,0,0,0-2.883.541A4.248,4.248,0,0,1,5.026.773Zm0,8.506A4.256,4.256,0,0,1,1.29,7.056a9.212,9.212,0,0,1,2.577-.483,2.612,2.612,0,0,1,1.374.348,3.377,3.377,0,0,0,1.719.425,4.171,4.171,0,0,0,1.873-.433A4.253,4.253,0,0,1,5.026,9.279Z" transform="translate(355.64 347.119)" fill="#ff8400"/>
  </g>
</svg>
