<svg xmlns="http://www.w3.org/2000/svg" width="28.761" height="18.89" viewBox="0 0 28.761 18.89">
  <g id="Group_17" data-name="Group 17" transform="translate(-347 -384)">
    <g id="Group">
      <g id="Group-2" data-name="Group">
        <path id="Vector" d="M28.746,13.064a26.847,26.847,0,0,0-.788-5.194A19.937,19.937,0,0,0,26.346,3.5C23.838-.907,21.115-.226,17.856.633a23.335,23.335,0,0,1-3.3.645H14.2a23.335,23.335,0,0,1-3.3-.645c-3.26-.824-5.983-1.54-8.49,2.9A18.263,18.263,0,0,0,.8,7.905,26.847,26.847,0,0,0,.015,13.1a9.761,9.761,0,0,0,.5,4.084A2.715,2.715,0,0,0,2.237,18.8a3.5,3.5,0,0,0,2.293-.251,16.838,16.838,0,0,0,4.585-3.26,7.909,7.909,0,0,1,5.266-1.612,7.909,7.909,0,0,1,5.266,1.612,16.838,16.838,0,0,0,4.585,3.26,3.747,3.747,0,0,0,2.293.251,2.677,2.677,0,0,0,1.72-1.648A9.579,9.579,0,0,0,28.746,13.064Zm-1.72,3.582a1.421,1.421,0,0,1-.86.9,2.474,2.474,0,0,1-1.469-.179,14.609,14.609,0,0,1-4.156-2.973c-1.361-1.361-3.761-2.042-6.162-2.042a9.447,9.447,0,0,0-6.2,1.97,14.885,14.885,0,0,1-4.156,2.973,2.222,2.222,0,0,1-1.469.179,1.421,1.421,0,0,1-.86-.9,8.471,8.471,0,0,1-.358-3.439,24.71,24.71,0,0,1,.752-4.944A17.093,17.093,0,0,1,3.6,4.144C5.568.6,7.861,1.171,10.583,1.887a21.014,21.014,0,0,0,3.511.681h.537a20.754,20.754,0,0,0,3.547-.681C20.9,1.206,23.193.6,25.164,4.144a16.519,16.519,0,0,1,1.5,4.048,27.115,27.115,0,0,1,.752,4.944A8.289,8.289,0,0,1,27.026,16.646Z" transform="translate(347 384)" fill="#ff8400"/>
      </g>
    </g>
    <g id="Group-3" data-name="Group">
      <g id="Group-4" data-name="Group">
        <path id="Vector-2" data-name="Vector" d="M7.38,2.508A2.177,2.177,0,0,0,6.09,1.9,2.038,2.038,0,0,0,5.517.645L5.481.609A2.029,2.029,0,0,0,4.012,0,2.115,2.115,0,0,0,2.543.609,2.082,2.082,0,0,0,1.934,1.9a2.134,2.134,0,0,0-1.29.573l-.036.036A2.029,2.029,0,0,0,0,3.976,2.115,2.115,0,0,0,.609,5.445a2,2,0,0,0,1.325.609,1.911,1.911,0,0,0,.609,1.29,2.029,2.029,0,0,0,1.469.609,2.115,2.115,0,0,0,1.469-.609,2.177,2.177,0,0,0,.609-1.29,1.911,1.911,0,0,0,1.29-.609,2.029,2.029,0,0,0,.609-1.469A2.115,2.115,0,0,0,7.38,2.508Zm-.9,2.006a.729.729,0,0,1-.537.215h-.5a.68.68,0,0,0-.681.681v.466a.735.735,0,0,1-.752.752.735.735,0,0,1-.752-.752v-.5a.68.68,0,0,0-.681-.681h-.5A.735.735,0,0,1,1.54,3.439L1.576,3.4a.856.856,0,0,1,.5-.179h.5a.68.68,0,0,0,.681-.681v-.5a.735.735,0,0,1,.752-.752A.729.729,0,0,1,4.55,1.5l.036.036a.856.856,0,0,1,.179.5v.5a.68.68,0,0,0,.681.681h.5a.735.735,0,0,1,.752.752A.729.729,0,0,1,6.484,4.514Z" transform="translate(350.705 387.571)" fill="#ff8400"/>
      </g>
    </g>
    <g id="Group-5" data-name="Group">
      <g id="Group-6" data-name="Group">
        <path id="Vector-3" data-name="Vector" d="M2.508,1.254A1.254,1.254,0,1,1,1.254,0,1.254,1.254,0,0,1,2.508,1.254Z" transform="translate(366.36 387.75)" fill="#ff8400"/>
      </g>
    </g>
    <g id="Group-7" data-name="Group">
      <g id="Group-8" data-name="Group">
        <path id="Vector-4" data-name="Vector" d="M2.508,1.254A1.254,1.254,0,1,1,1.254,0,1.254,1.254,0,0,1,2.508,1.254Z" transform="translate(366.36 392.837)" fill="#ff8400"/>
      </g>
    </g>
    <g id="Group-9" data-name="Group">
      <g id="Group-10" data-name="Group">
        <path id="Vector-5" data-name="Vector" d="M2.508,1.254A1.254,1.254,0,1,1,1.254,0,1.254,1.254,0,0,1,2.508,1.254Z" transform="translate(363.817 390.293)" fill="#ff8400"/>
      </g>
    </g>
    <g id="Group-11" data-name="Group">
      <g id="Group-12" data-name="Group">
        <path id="Vector-6" data-name="Vector" d="M2.508,1.254A1.254,1.254,0,1,1,1.254,0,1.254,1.254,0,0,1,2.508,1.254Z" transform="translate(368.904 390.293)" fill="#ff8400"/>
      </g>
    </g>
  </g>
</svg>
