<?xml version="1.0" encoding="utf-8"?>
<!-- Generator: Adobe Illustrator 27.0.0, SVG Export Plug-In . SVG Version: 6.00 Build 0)  -->
<svg version="1.1" id="Layer_1" xmlns="http://www.w3.org/2000/svg" xmlns:xlink="http://www.w3.org/1999/xlink" x="0px" y="0px"
	 viewBox="0 0 30 30" style="enable-background:new 0 0 30 30;" xml:space="preserve">
<style type="text/css">
	.st0{fill:#ED2224;}
</style>
<g>
	<g>
		<path class="st0" d="M9.5,24.2c0.7,2.2,2.1,3.5,4.4,3.7c1.7,0.2,3.5,0.2,5.3,0c2.3-0.3,4-2.2,4-4.7c0.1-3.7,0-7.3,0-11
			c0-0.3-0.1-0.4-0.3-0.6c-0.3-0.2-0.6-0.4-0.8-0.6c-1.2-1-1.8-2.3-1.6-3.9c0-0.4,0-0.7-0.4-0.8c-0.4-0.1-0.6-0.6-0.5-1
			c0.1-0.5,0.4-0.7,0.9-0.7c0.1,0,0.3,0,0.4,0c0.4,0.1,0.5-0.1,0.5-0.5c0-0.8,0-1.5,0-2.3c0-0.6,0.4-0.9,0.9-0.9
			c0.4-0.1,0.9,0.5,0.9,1c0,0.8,0,1.5,0,2.3c0,0.4,0.1,0.5,0.5,0.5c1.4,0,1.4,0,1.4-1.4c0-0.5,0-0.9,0-1.4c0-0.6,0.5-1,0.9-0.9
			c0.5,0.1,0.8,0.4,0.8,1c0,0.7,0.1,1.4,0,2.1c0,0.5,0.1,0.8,0.7,0.7c0.1,0,0.2,0,0.3,0c0.4,0,0.7,0.2,0.8,0.7c0.1,0.4,0,0.9-0.5,1
			c-0.4,0.1-0.5,0.4-0.4,0.7c0.2,2.1-0.8,3.6-2.5,4.6c-0.3,0.2-0.3,0.5-0.3,0.8c0,3.3,0,6.5,0,9.8c0,1.4-0.2,2.7-0.8,3.9
			c-1.1,2.1-2.8,3.3-5.2,3.5c-1.9,0.2-3.9,0.2-5.8-0.1c-2.7-0.4-4.5-2-5.4-4.6c-0.2-0.6-0.5-0.9-1.2-0.9c-0.8,0-1.6,0-2.4,0
			c-1.4,0-2.5-1.1-2.5-2.5c0-5.4,0-10.9,0-16.3c0-1.3,0.9-2.3,2.2-2.5c1.2-0.2,2.3-0.1,3.5-0.1c1.5,0,2.9,0,4.4,0
			c1.9,0.1,2.9,1,2.9,3c0,5.1,0,10.3,0,15.4c0,2-1,3-3,3C11.1,24.2,10.3,24.2,9.5,24.2z M3.6,13.5c0,2.5,0,5.1,0,7.6
			c0,0.9,0.4,1.3,1.3,1.3c2.3,0,4.6,0,6.8,0c0.8,0,1.3-0.4,1.3-1.2c0-5.1,0-10.2,0-15.3c0-0.8-0.4-1.2-1.2-1.2c-2.3,0-4.6,0-6.9,0
			C4,4.7,3.6,5.1,3.6,5.9C3.6,8.5,3.6,11,3.6,13.5z"/>
		<path class="st0" d="M8.3,1.9c-0.8,0-1.6,0-2.4,0c-0.3,0-0.4-0.1-0.4-0.4C5.4,0.3,5.6,0,6.8,0C8,0,9.1,0,10.3,0.1
			c0.6,0.1,1.1,1.2,0.8,1.7c-0.1,0.2-0.3,0.1-0.4,0.1C9.8,1.9,9.1,1.9,8.3,1.9z"/>
		<path class="st0" d="M8.3,8.4c1.1,0,2.1,0,3.2,0C11.9,8.4,12,8.5,12,9c0,0.9,0,1.8,0,2.7c0,0.4-0.1,0.5-0.5,0.5
			c-2.2,0-4.3,0-6.5,0c-0.4,0-0.5-0.1-0.5-0.5c0-0.9,0-1.8,0-2.8c0-0.4,0.2-0.5,0.6-0.5C6.1,8.4,7.2,8.4,8.3,8.4z"/>
		<path class="st0" d="M8.3,17.7c1.1,0,2.1,0,3.2,0c0.4,0,0.5,0.1,0.5,0.5c0,0.9,0,1.9,0,2.8c0,0.3-0.1,0.5-0.4,0.5
			c-2.2,0-4.4,0-6.6,0c-0.4,0-0.5-0.1-0.4-0.5c0-0.9,0-1.9,0-2.8c0-0.4,0.1-0.5,0.5-0.5C6.1,17.7,7.2,17.7,8.3,17.7z"/>
		<path class="st0" d="M8.3,16.8c-1.1,0-2.2,0-3.2,0c-0.4,0-0.5-0.1-0.5-0.5c0-0.9,0-1.8,0-2.8c0-0.4,0.1-0.4,0.5-0.4
			c2.2,0,4.4,0,6.6,0c0.4,0,0.4,0.1,0.4,0.5c0,0.9,0,1.8,0,2.8c0,0.4-0.1,0.5-0.5,0.4C10.5,16.8,9.4,16.8,8.3,16.8z"/>
	</g>
</g>
</svg>
