<?xml version="1.0" encoding="utf-8"?>
<!-- Generator: Adobe Illustrator 27.0.0, SVG Export Plug-In . SVG Version: 6.00 Build 0)  -->
<svg version="1.1" id="Layer_1" xmlns="http://www.w3.org/2000/svg" xmlns:xlink="http://www.w3.org/1999/xlink" x="0px" y="0px"
	 viewBox="0 0 30 30" style="enable-background:new 0 0 30 30;" xml:space="preserve">
<style type="text/css">
	.st0{fill:#ED2224;}
</style>
<g>
	<g>
		<path class="st0" d="M30,15.3c0,4.1,0,8.1,0,12.2c-0.1,0.2-0.3,0.3-0.6,0.3c-1.9,0-3.7,0-5.6,0c-0.3,0-0.7,0-1,0
			c-0.3,0-0.5-0.2-0.5-0.5c0-0.1,0-0.2,0-0.3c0-0.3-0.1-0.4-0.3-0.4c-2.5,0-5.1,0-7.6,0c-0.6,0-0.8-0.2-0.8-0.8c0-0.5,0-1,0-1.5
			c0-0.2-0.1-0.3-0.3-0.3c-1.6,0-3.2,0-4.9,0c-0.8,0-1.1-0.5-0.8-1.2c0.5-1.1,0.8-2.1,1-3.3c0-0.2,0-0.3-0.2-0.3c-2.4,0-4.8,0-7.3,0
			c-0.5,0-0.8-0.1-1-0.5c0-5,0-9.9,0-14.9c0.2-0.4,0.6-0.5,1-0.5c7.3,0,14.7,0,22,0c0.1,0,0.2,0,0.3,0c0.3,0,0.5,0.1,0.6,0.3
			c0.2,0.2,0.1,0.4,0.1,0.7c0,2,0,4.1,0,6.1c0,0.2,0,0.3,0.3,0.3c0.3,0,0.6,0,0.8,0c0.5,0,0.7,0.2,0.8,0.8c0,1.1,0,2.1,0,3.2
			c0,0.2,0.1,0.3,0.3,0.3c1,0,2,0,3,0C29.6,15.1,29.8,15.1,30,15.3z M19.6,25.5c0.8,0,1.6,0,2.4,0c0.2,0,0.3,0,0.2-0.2
			c0-0.1,0-0.2,0-0.2c0-0.1,0-0.2-0.2-0.2c-0.5,0-1.1,0-1.6,0c-0.1,0-0.2,0-0.2,0.1C20.2,25.4,20,25.5,19.6,25.5
			c-0.2-0.1-0.4-0.2-0.4-0.5c0-0.2-0.1-0.2-0.2-0.2c-1.4,0-2.7,0-4.1,0c-0.2,0-0.2,0.1-0.2,0.2c0,0.1,0,0.2,0,0.3
			c0,0.1,0,0.2,0.2,0.2C16.4,25.6,18,25.6,19.6,25.5z M12.1,4.9c-3.4,0-6.8,0-10.2,0c-0.2,0-0.3,0-0.3,0.3c0,4.1,0,8.3,0,12.4
			c0,0.2,0,0.3,0.3,0.3c3.8,0,7.6,0,11.4,0c0.2,0,0.3-0.1,0.3-0.3c0-2,0-3.9,0-5.9c0-0.7,0.2-0.8,0.8-0.8c2.7,0,5.3,0,8,0
			c0.2,0,0.3-0.1,0.3-0.3c0-1.8,0-3.5,0-5.3c0-0.3-0.1-0.3-0.3-0.3C18.9,4.9,15.5,4.9,12.1,4.9z M14.6,17.9c0,1.9,0,3.7,0,5.6
			c0,0.3,0.1,0.3,0.3,0.3c2.3,0,4.6,0,7,0c0.3,0,0.3-0.1,0.3-0.3c0-2.6,0-5.1,0-7.7c0-0.5,0.1-0.7,0.7-0.7c0.6,0,1.1,0,1.7,0
			c0.2,0,0.2-0.1,0.2-0.2c0-0.9,0-1.8,0-2.6c0-0.2-0.1-0.3-0.3-0.3c-3.2,0-6.4,0-9.6,0c-0.2,0-0.3,0-0.3,0.3
			C14.6,14.1,14.6,16,14.6,17.9z M29.1,21.5c0-1.3,0-2.5,0-3.8c0-0.2-0.1-0.2-0.2-0.2c-1.8,0-3.6,0-5.4,0c-0.2,0-0.3,0.1-0.3,0.3
			c0,2.5,0,5,0,7.5c0,0.2,0.1,0.3,0.3,0.3c1.8,0,3.6,0,5.4,0c0.2,0,0.3-0.1,0.3-0.3C29.1,24,29.1,22.7,29.1,21.5z M26.1,16.5
			c0.9,0,1.8,0,2.7,0c0.2,0,0.2-0.1,0.2-0.3c0-0.2,0-0.3-0.2-0.3c-1.8,0-3.6,0-5.4,0c-0.2,0-0.2,0.1-0.3,0.3c0,0.2,0,0.3,0.3,0.3
			C24.3,16.5,25.2,16.5,26.1,16.5z M27.5,26.9c0.5,0,0.8,0,1.2,0c0.2,0,0.3,0,0.3-0.3c0-0.3-0.1-0.3-0.3-0.3c-0.6,0-1.2,0-1.8,0
			c-0.2,0-0.3,0-0.4,0.2c-0.1,0.2-0.2,0.4-0.5,0.3c-0.1-0.1-0.3-0.2-0.3-0.4c0-0.1-0.1-0.2-0.2-0.2c-0.7,0-1.4,0-2.1,0
			c-0.2,0-0.2,0.1-0.2,0.2c0,0.2,0.1,0.3,0.3,0.3c0.9,0,1.8,0,2.6,0C26.6,26.9,27.1,26.9,27.5,26.9z"/>
	</g>
</g>
</svg>
