<?xml version="1.0" encoding="utf-8"?>
<!-- Generator: Adobe Illustrator 27.0.0, SVG Export Plug-In . SVG Version: 6.00 Build 0)  -->
<svg version="1.1" id="Layer_1" xmlns="http://www.w3.org/2000/svg" xmlns:xlink="http://www.w3.org/1999/xlink" x="0px" y="0px"
	 viewBox="0 0 30 30" style="enable-background:new 0 0 30 30;" xml:space="preserve">
<style type="text/css">
	.st0{fill:#ED2224;}
</style>
<g>
	<g>
		<path class="st0" d="M10,10.1c0.6-0.4,1.3-0.8,2.1-1c2.3-0.5,4.3,0.1,6,1.8c0,0,0.1,0.1,0.1,0.1c0.1,0.2,0.3,0.3,0.4,0.5
			c0.4,0.6,0.7,1.3,0.9,2.1c0.4,1.7,0.1,3.4-1,4.8c0,0.1-0.1,0.1-0.1,0.2c0,0-0.1,0-0.1,0.1c-0.4,0.5-0.9,1-1.5,1.4
			c-2,1.2-4.1,1.3-6.2,0.2c-0.1,0-0.2-0.1-0.2-0.1c-0.2-0.2-0.4-0.3-0.6-0.5c-0.4-0.3-0.7-0.7-1-1.1c-1.9-2.6-1.4-6.2,1.1-8.2
			c0,0,0.1-0.1,0.1-0.1C10,10.2,10,10.1,10,10.1z M11,19.1c0,0-0.1-0.1-0.1-0.1c0-0.1-0.1-0.1-0.2-0.1c-0.1,0-0.1-0.1-0.2-0.1
			c-0.1-0.1-0.1-0.1-0.2-0.2c0,0,0-0.1-0.1-0.1c-1-0.9-1.5-2.1-1.5-3.4c0-1.9,0.8-3.3,2.4-4.3c1.1-0.7,2.3-0.8,3.6-0.5
			c0.2,0,0.3,0,0.3-0.2c0-0.1,0-0.3-0.2-0.3c-0.8-0.2-1.6-0.2-2.4,0c-3,0.7-4.8,3.8-3.9,6.8c0.3,1,0.8,1.8,1.6,2.4
			c0.1,0.1,0.3,0.2,0.4,0.3c0.1,0.1,0.2,0.2,0.3,0.2c1.1,0.7,2.4,0.9,3.7,0.7c3.2-0.6,5.1-3.7,4.2-6.8c-0.2-0.5-0.4-1-0.7-1.5
			c-0.1-0.2-0.3-0.2-0.4-0.1c-0.2,0.2,0,0.3,0.1,0.4c0,0,0,0.1,0,0.1c1.1,1.7,1,4-0.3,5.6c-1.2,1.5-2.8,2.1-4.7,1.8
			c-0.5-0.1-1-0.3-1.5-0.5C11.1,19.2,11.1,19.1,11,19.1z M14.7,15c0-0.6-0.5-1.1-1.1-1.1c-0.6,0-1.1,0.5-1.1,1.1
			c0,0.6,0.5,1.1,1.1,1.1C14.2,16.1,14.7,15.6,14.7,15z M17,11.4c0.1,0,0.1,0,0.2-0.1c0-0.1,0-0.2-0.1-0.3c-0.4-0.3-0.8-0.6-1.2-0.8
			c-0.2-0.1-0.3,0-0.3,0.1c-0.1,0.1,0,0.3,0.1,0.3c0.4,0.2,0.7,0.4,1.1,0.7C16.9,11.4,16.9,11.4,17,11.4z M10.2,17.3
			c0,0,0.1,0,0.1,0c0.3-0.2,0.5-0.3,0.8-0.5c0.1-0.1,0.2-0.2,0.1-0.3c-0.1-0.1-0.2-0.2-0.3-0.1c-0.3,0.2-0.6,0.4-0.9,0.6
			C10,17,10,17.1,10,17.2C10.1,17.3,10.1,17.3,10.2,17.3z M15.2,17.2c-0.2,0-0.3,0.2-0.2,0.4c0.2,0.3,0.3,0.5,0.5,0.8
			c0.1,0.1,0.2,0.2,0.3,0.1c0.1-0.1,0.1-0.2,0.1-0.3c-0.2-0.3-0.3-0.5-0.5-0.8C15.3,17.3,15.3,17.2,15.2,17.2z M16.1,13.6
			C16.1,13.6,16.1,13.6,16.1,13.6c0.4-0.2,0.7-0.4,1-0.6c0.1-0.1,0.1-0.2,0-0.3c-0.1-0.1-0.2-0.1-0.3-0.1c-0.3,0.2-0.6,0.4-0.9,0.6
			c-0.1,0.1-0.1,0.2,0,0.2C15.9,13.5,16,13.6,16.1,13.6z M11.5,11.4c-0.1,0-0.2,0-0.2,0.1c-0.1,0.1-0.1,0.2,0,0.3
			c0.2,0.3,0.3,0.5,0.5,0.8c0.1,0.1,0.2,0.2,0.3,0.1c0.1-0.1,0.1-0.2,0.1-0.3c-0.2-0.3-0.3-0.5-0.5-0.8
			C11.6,11.4,11.5,11.4,11.5,11.4z"/>
		<path class="st0" d="M28.6,8.4c0-0.2,0.1-0.3,0.1-0.5c0-0.2,0.2-0.3,0.4-0.3c0.2,0,0.3,0.2,0.3,0.4c-0.4,1.7-1,3.4-2.2,4.7
			c-0.4,0.5-0.9,0.9-1.5,1.3c-0.1,0.1-0.1,0.1-0.1,0.2c0.2,0.5,0,1-0.5,1.3C25,15.7,25,15.7,25,15.8c0,0.1,0,0.3,0,0.4
			c0,0.1,0,0.2,0.2,0.1c0.6-0.2,1.2,0.1,1.4,0.7c0,0.1,0,0.3,0,0.4c0,0.1,0,0.1-0.1,0.2c-0.1,0-0.1-0.1-0.1-0.1
			c-0.3-0.5-0.7-0.8-1.3-0.9c-0.8-0.2-1.4,0.1-1.9,0.7c-0.1,0.1-0.2,0.3-0.3,0.4c-0.1-0.2-0.1-0.4-0.1-0.5c0.1-0.7,0.8-1.1,1.5-0.9
			c0.1,0,0.2,0,0.2-0.1c0,0,0-0.1,0-0.1c0-0.3,0-0.5-0.3-0.7c-0.6-0.4-0.5-1.4,0.2-1.7c0.1,0,0.1-0.1,0.1-0.2c0-0.8-0.1-1.5-0.4-2.3
			c-0.1-0.2-0.1-0.2-0.3-0.1c-0.5,0.4-1.1,0.7-1.6,1.1c-0.3,0.2-0.5,0.1-0.7-0.2c-0.4-0.5-0.7-1.1-1.1-1.6c-0.1-0.1-0.1-0.2-0.2-0.3
			c0,0,0,0,0-0.1c0,0,0,0,0,0c0,0,0,0,0,0c-0.1-0.1-0.1-0.2-0.2-0.4c0-0.1-0.1-0.2-0.1-0.2c0,0,0,0,0,0c0-0.1-0.1-0.2-0.1-0.2
			c-0.1-0.1-0.2-0.3-0.3-0.4c-0.2-0.3-0.2-0.5,0.2-0.7c0.6-0.4,1.2-0.7,1.7-1.1c0.1-0.1,0.1-0.1,0-0.2C20.3,6,19.3,5.3,18,5
			c-0.9-0.2-1.8-0.1-2.7,0.3c-0.1,0-0.1,0.1-0.1,0.2c0.3,0.7,0.2,1.4-0.3,2C14.5,7.9,14,8,13.5,7.8c-0.5-0.1-0.7-0.7-0.6-1.3
			c0.2-0.6,0.5-1,1-1.3c0.2-0.2,0.2-0.2,0-0.3c-0.5-0.3-1.1-0.3-1.6-0.4C8.7,4.3,5.2,6.5,3.7,9.9c-0.7,1.6-0.9,3.3-0.8,5
			c0,0.6,0.1,1.1,0.3,1.6c0,0.2,0,0.4-0.2,0.4c-0.2,0-0.4-0.1-0.4-0.3c-0.1-0.6-0.2-1.2-0.3-1.7c-0.1-1.1-0.1-2.1,0.2-3.2
			C3.1,8.5,5,6.1,8,4.7c1.2-0.6,2.5-0.8,3.9-0.8c0.7,0,1.5,0.1,2.1,0.4c0.2,0.1,0.4,0.2,0.6,0.4c0.1,0.1,0.1,0.1,0.2,0
			c1.8-0.8,3.4-0.6,5.1,0.3c0.7,0.4,1.3,0.9,1.9,1.4c0.1,0.1,0.1,0.1,0.3,0c0.6-0.4,1.2-0.8,1.8-1.1c0.4-0.2,0.6-0.1,0.9,0.3
			C24.8,5.8,24.9,6,25,6.2c0.5,0.7,0.9,1.4,1.4,2.1c0.1,0.1,0.1,0.2,0.2,0.3c0.2,0.3,0.1,0.7-0.2,0.9c-0.6,0.4-1.2,0.8-1.8,1.2
			c-0.1,0.1-0.1,0.1-0.1,0.3c0.3,0.8,0.5,1.7,0.5,2.5c0,0.2,0,0.2,0.2,0.1c1.1-0.7,1.9-1.6,2.5-2.7c0.4-0.7,0.6-1.5,0.8-2.2
			C28.5,8.6,28.5,8.6,28.6,8.4C28.6,8.5,28.6,8.5,28.6,8.4z M21.8,8.1c0-0.1-0.1-0.2-0.1-0.2c0,0,0-0.1-0.1-0.1
			c-0.1-0.1-0.2-0.2-0.3-0.1c-0.1,0.1-0.2,0.2-0.1,0.3c0,0.1,0.1,0.2,0.1,0.2c0,0.1,0.1,0.2,0.2,0.2c0,0,0,0.1,0,0.1
			c0.1,0.1,0.1,0.2,0.2,0.3c0,0.1,0.1,0.2,0.1,0.2c0.4,0.6,0.7,1.2,1.1,1.7c0.1,0.1,0.2,0.2,0.3,0.1c0.1-0.1,0.1-0.2,0.1-0.3
			c-0.4-0.7-0.9-1.4-1.3-2C22,8.3,22,8.2,21.8,8.1C21.9,8.1,21.9,8.1,21.8,8.1z M22.9,7.2c0-0.1-0.1-0.2-0.2-0.3
			c-0.1-0.1-0.2-0.1-0.3,0c-0.1,0.1-0.1,0.2-0.1,0.3c0,0.1,0.1,0.1,0.1,0.2c0,0.1,0,0.1,0.1,0.2c0,0.1,0.1,0.1,0.1,0.2
			c0.1,0.1,0.2,0.1,0.3,0c0.1-0.1,0.1-0.2,0-0.3C23,7.4,23,7.3,22.9,7.2z M20.1,8.8c0,0.1,0.1,0.1,0.1,0.2c0,0,0,0,0,0
			c0.5,0.8,1,1.6,1.6,2.4c0.1,0.1,0.2,0.2,0.3,0.1c0.1-0.1,0.1-0.2,0-0.4c-0.6-0.9-1.1-1.8-1.7-2.7c-0.1-0.2-0.2-0.2-0.4-0.1
			C20,8.5,20,8.7,20.1,8.8z M25.8,9.1c0-0.1,0-0.1-0.1-0.2c-0.5-0.8-1-1.6-1.5-2.3C24.1,6.4,24,6.3,24,6.2c-0.1-0.1-0.2-0.1-0.3,0
			c-0.1,0.1-0.1,0.2-0.1,0.3c0,0,0,0.1,0.1,0.1c0.5,0.8,1.1,1.6,1.6,2.5c0,0.1,0.1,0.2,0.2,0.2c0.1,0.1,0.2,0.1,0.3,0.1
			C25.7,9.3,25.8,9.2,25.8,9.1z M14.7,6.2c0-0.1,0-0.3-0.1-0.4c0-0.1-0.1-0.1-0.1,0C14.2,5.8,14,6,13.8,6.2
			c-0.2,0.2-0.3,0.5-0.3,0.8c0,0.2,0.1,0.3,0.3,0.3c0.3,0,0.5-0.1,0.6-0.3C14.6,6.7,14.7,6.5,14.7,6.2z M23.1,8.3
			c0,0.1,0,0.1,0.1,0.2c0.1,0.2,0.2,0.3,0.3,0.5c0.2,0.3,0.4,0.7,0.6,1c0.1,0.1,0.2,0.2,0.3,0.1c0.1-0.1,0.1-0.2,0.1-0.3
			c0,0,0-0.1-0.1-0.1c-0.2-0.4-0.5-0.7-0.7-1.1c-0.1-0.1-0.1-0.2-0.2-0.3c-0.1-0.1-0.2-0.1-0.3-0.1C23.2,8.2,23.1,8.2,23.1,8.3z
			 M25.1,14.7c0-0.2-0.2-0.4-0.4-0.4c-0.2,0-0.4,0.2-0.4,0.4c0,0.2,0.2,0.5,0.4,0.4C24.9,15.2,25.1,15,25.1,14.7z"/>
		<path class="st0" d="M7.8,21.4c-0.1,0.1-0.1,0.2-0.2,0.2c-0.1,0-0.2,0.1-0.2,0.1c-0.1,0.1-0.2,0.1-0.3,0.2
			c-0.3,0.2-0.5,0.3-0.7,0.5C5.6,23,4.8,23.5,4,24c-0.2,0.2-0.5,0.3-0.7,0.5c-0.3,0.2-0.7,0.2-0.9-0.2c-0.7-1-1.3-2.1-2-3.1
			c0-0.1-0.1-0.1-0.1-0.2c0,0,0,0,0-0.1c0,0,0,0,0-0.1c0,0,0,0,0-0.1c0-0.2,0.2-0.3,0.3-0.4c1.5-0.9,2.9-1.9,4.4-2.8
			c0.2-0.2,0.5-0.1,0.7,0.1C6.3,18.8,7,19.9,7.7,21c0,0.1,0.1,0.1,0.1,0.2C7.8,21.3,7.8,21.4,7.8,21.4z M2.6,19.8
			c-0.2,0-0.3,0.2-0.2,0.4c0.1,0.2,0.2,0.4,0.4,0.6c0.5,0.7,0.9,1.4,1.4,2.1C4.2,23,4.3,23.1,4.4,23c0.1-0.1,0.1-0.2,0-0.4
			c0-0.1-0.1-0.2-0.1-0.2c-0.5-0.8-1-1.6-1.5-2.4C2.7,19.9,2.7,19.8,2.6,19.8z M4.9,18.3c-0.2,0-0.3,0.2-0.2,0.4
			c0.1,0.2,0.3,0.4,0.4,0.7c0.4,0.7,0.9,1.4,1.3,2c0.1,0.1,0.2,0.2,0.3,0.1c0.1-0.1,0.1-0.2,0.1-0.3c-0.6-0.9-1.2-1.8-1.7-2.7
			C5.1,18.4,5,18.3,4.9,18.3z M3.3,23.6c0-0.1-0.1-0.2-0.1-0.2c-0.3-0.4-0.5-0.8-0.8-1.2c-0.3-0.5-0.6-0.9-0.9-1.4
			c-0.1-0.2-0.3-0.2-0.4-0.1c-0.1,0.1-0.1,0.2,0,0.4c0.6,0.9,1.1,1.7,1.7,2.6c0,0,0.1,0.1,0.1,0.1c0.1,0.1,0.2,0.1,0.2,0
			C3.3,23.7,3.3,23.7,3.3,23.6z M4.8,20.7c0-0.1,0-0.1-0.1-0.2c-0.3-0.4-0.6-0.9-0.8-1.3c-0.1-0.2-0.2-0.2-0.3-0.1
			c-0.1,0.1-0.1,0.2,0,0.4C3.7,19.7,3.8,20,4,20.2c0.1,0.2,0.3,0.4,0.4,0.6c0.1,0.1,0.2,0.1,0.3,0.1C4.8,20.9,4.8,20.8,4.8,20.7z
			 M5,21.2c-0.2,0-0.3,0.2-0.2,0.3C5,21.7,5.1,22,5.3,22.2c0.1,0.1,0.2,0.1,0.3,0.1c0.1-0.1,0.1-0.2,0.1-0.3
			c-0.1-0.2-0.3-0.4-0.4-0.6C5.2,21.2,5.1,21.2,5,21.2z"/>
		<path class="st0" d="M22.7,20.1c0-0.8,0.2-1.7,0.7-2.4c0.3-0.4,0.7-0.7,1.3-0.7c0.5,0,0.9,0.3,1.2,0.7c0.4,0.5,0.6,1.1,0.6,1.7
			c0.1,0.9,0,1.7-0.3,2.5c-0.2,0.3-0.4,0.6-0.6,0.9c-0.6,0.5-1.3,0.4-1.8-0.1c-0.5-0.5-0.8-1.1-0.9-1.8
			C22.8,20.7,22.7,20.4,22.7,20.1z M25,22.6c0.1,0,0.2-0.1,0.3-0.2c0.5-0.4,0.7-1,0.8-1.6c0-0.1-0.1-0.3-0.2-0.3
			c-0.1,0-0.2,0-0.3,0.2c-0.1,0.6-0.3,1.1-0.8,1.4c-0.1,0.1-0.1,0.2-0.1,0.3C24.8,22.6,24.9,22.6,25,22.6z"/>
		<path class="st0" d="M9.4,20c0.4,0.4,0.9,0.7,1.4,0.9c0.1,0,0.2,0.1,0.2,0.2c0,0.1,0,0.2-0.2,0.2c-0.3,0.1-0.7,0.2-1,0.3
			c-0.6,0.1-1.2-0.1-1.5-0.6c-0.8-1.2-1.5-2.4-2.3-3.6c-0.4-0.7-0.4-1.3,0.2-1.9c0.2-0.2,0.3-0.4,0.5-0.6c0.1-0.1,0.2-0.2,0.3-0.1
			c0.1,0.1,0.2,0.2,0.2,0.3c0,1.6,0.6,3.1,1.7,4.3c0.1,0.1,0.2,0.3,0.4,0.4C9.2,19.8,9.3,19.9,9.4,20z"/>
		<path class="st0" d="M19.8,10.6c0.3,0.5,0.6,0.9,0.9,1.4c0.1,0.2,0.3,0.4,0.4,0.6c0.4,0.6,0.3,1.3-0.1,1.8
			c-0.1,0.2-0.3,0.3-0.5,0.5c-0.1,0.1-0.2,0.2-0.3,0.1c-0.1-0.1-0.2-0.2-0.2-0.3c0-1.5-0.5-2.8-1.5-3.9c0,0-0.1-0.1-0.1-0.1
			c0-0.1-0.1-0.1-0.2-0.2c-0.5-0.6-1.1-1-1.8-1.4c-0.1,0-0.2-0.1-0.3-0.1c-0.1-0.1-0.2-0.3,0-0.4c0.5-0.2,1-0.4,1.6-0.3
			c0.4,0.1,0.7,0.3,1,0.7c0.1,0.2,0.3,0.4,0.4,0.6c0,0.1,0.1,0.2,0.2,0.3c0.1,0.2,0.2,0.3,0.3,0.5C19.7,10.5,19.8,10.5,19.8,10.6z"
			/>
		<path class="st0" d="M13.6,26.2c-2.2,0-4.3-0.5-6.3-1.4c-0.1,0-0.2-0.1-0.2-0.1c-0.1-0.1-0.1-0.3,0-0.4c0.1-0.1,0.3-0.2,0.4-0.1
			c0.6,0.3,1.2,0.5,1.8,0.7c1.7,0.5,3.5,0.8,5.3,0.7c2-0.1,3.9-0.8,5.4-2.1c0,0,0,0,0,0c0.2-0.2,0.4-0.2,0.5,0
			c0.1,0.2,0.1,0.3-0.1,0.5c-0.3,0.2-0.6,0.5-0.9,0.7c-1.4,0.9-2.9,1.4-4.5,1.6C14.5,26.2,14.1,26.2,13.6,26.2z"/>
		<path class="st0" d="M25.5,24.1c-0.1,0.1-0.2,0.2-0.3,0.3c-0.3,0.1-0.6,0.2-0.9,0.1c-0.1,0-0.2-0.1-0.3-0.1
			c-0.3-0.2-0.5-0.5-0.5-0.8c0,0,0-0.1,0-0.1c0,0,0.1,0,0.1,0c0.6,0.4,1.2,0.4,1.9,0c0,0,0.1-0.1,0.1,0c0,0,0,0.1,0,0.1
			C25.7,23.7,25.6,23.9,25.5,24.1z"/>
		<path class="st0" d="M27.1,20c0-0.5-0.1-1-0.3-1.5c-0.1-0.1,0-0.2,0.1-0.1c0.5,0.1,0.8,0.4,0.9,0.9c0.1,0.5-0.2,0.9-0.6,1.1
			c-0.2,0.1-0.2,0.1-0.2-0.1C27.1,20.1,27.1,20,27.1,20z"/>
		<path class="st0" d="M21.5,19.5c0-0.6,0.4-1.1,0.9-1.1c0.1,0,0.2,0,0.1,0.1c-0.2,0.6-0.3,1.2-0.3,1.8c0,0.2,0,0.2-0.2,0.1
			C21.7,20.1,21.5,19.8,21.5,19.5z"/>
		<path class="st0" d="M22,22.1c-0.1-0.4-0.1-0.7,0.2-1.1c0,0,0.1-0.1,0.1-0.1c0.1,0,0,0.1,0.1,0.2c0.1,0.6,0.3,1.1,0.6,1.6
			c0,0,0.1,0.1,0,0.1c0,0-0.1,0-0.1,0c-0.3,0-0.6-0.2-0.8-0.5C22.1,22.2,22,22.1,22,22.1z"/>
		<path class="st0" d="M26.7,22.7c-0.1,0-0.2,0.1-0.4,0.1c0,0,0-0.1,0-0.1c0.3-0.4,0.5-0.9,0.6-1.4c0-0.1,0-0.1,0.1-0.1
			c0.1,0,0.1,0.1,0.1,0.1c0.2,0.3,0.2,0.6,0.1,0.8c0,0.1-0.1,0.2-0.1,0.3c-0.1,0.1-0.2,0.2-0.2,0.2C26.8,22.6,26.7,22.6,26.7,22.7z"
			/>
		<path class="st0" d="M12.9,15c0-0.4,0.3-0.7,0.7-0.7c0.4,0,0.7,0.3,0.7,0.7c0,0.4-0.3,0.7-0.7,0.7C13.2,15.7,12.9,15.4,12.9,15z"
			/>
	</g>
</g>
</svg>
