<?xml version="1.0" encoding="utf-8"?>
<!-- Generator: Adobe Illustrator 26.0.1, SVG Export Plug-In . SVG Version: 6.00 Build 0)  -->
<svg version="1.1" id="Capa_1" xmlns="http://www.w3.org/2000/svg" xmlns:xlink="http://www.w3.org/1999/xlink" x="0px" y="0px"
	 viewBox="0 0 800 800" style="enable-background:new 0 0 800 800;" xml:space="preserve">
<style type="text/css">
	.st0{fill:none;stroke:#FF8400;stroke-width:25;stroke-miterlimit:10;}
</style>
<g>
	<path class="st0" d="M774.8,173.9c-1.5-4.3-4.8-7.9-9-9.8L622.6,97.9c-30.5-10.3-61.5-18.5-92.9-24.4c-1.1-0.2-2.2-0.3-3.3-0.3
		c-7.8,0-14.7,5.4-16.4,13.2c-11.4,50.4-56.1,88.1-110,88.1c-53.9,0-98.5-37.7-110-88.1c-1.7-7.9-8.7-13.2-16.4-13.2
		c-1.1,0-2.2,0.1-3.3,0.3c-31.4,6-62.4,14.1-92.9,24.4L34.1,164c-4.2,1.9-7.5,5.5-8.9,9.8c-1.5,4.4-1.2,9.1,0.9,13.3l62.2,122.8
		c2.9,5.8,8.8,9.3,15.1,9.3c1.6,0,3.3-0.2,4.9-0.7l69.1-20.5v411.9c0,9.4,7.6,17,17,17h411.3c9.4,0,17-7.6,17-17V298l69.1,20.5
		c1.6,0.5,3.3,0.7,4.9,0.7c6.3,0,12.2-3.5,15.1-9.3l62.2-122.8C776,183,776.3,178.3,774.8,173.9z"/>
</g>
</svg>
