<?xml version="1.0" encoding="utf-8"?>
<!-- Generator: Adobe Illustrator 27.0.0, SVG Export Plug-In . SVG Version: 6.00 Build 0)  -->
<svg version="1.1" id="Layer_1" xmlns="http://www.w3.org/2000/svg" xmlns:xlink="http://www.w3.org/1999/xlink" x="0px" y="0px"
	 viewBox="0 0 24 21.6" style="enable-background:new 0 0 24 21.6;" xml:space="preserve">
<style type="text/css">
	.st0{fill:#FF0000;}
</style>
<g id="Group_18" transform="translate(-349 -425)">
	<path id="Vector" class="st0" d="M371.2,438.5c-0.2-0.7-0.8-1.1-1.5-1.1H369c0-1.8-1.4-3.2-3.2-3.2c-1.8,0-3.2,1.4-3.2,3.2h-0.7
		c-0.7,0-1.3,0.5-1.5,1.1l-1.7,5.7c-0.3,1,0.3,2,1.2,2.2c0.2,0,0.3,0.1,0.5,0.1h10.8c1,0,1.8-0.8,1.8-1.8c0-0.2,0-0.3-0.1-0.5
		L371.2,438.5z M363.4,437.4c0-1.3,1.1-2.4,2.4-2.4c1.3,0,2.4,1.1,2.4,2.4v3l-0.4,0.4l-0.4-0.4v-3c0-0.9-0.7-1.6-1.6-1.6
		c-0.9,0-1.6,0.7-1.6,1.6v3l-0.4,0.4l-0.4-0.4V437.4z M366.6,437.4H365c0-0.4,0.4-0.8,0.8-0.8C366.2,436.6,366.6,437,366.6,437.4
		C366.6,437.4,366.6,437.4,366.6,437.4z M371.2,445.8h-10.8c-0.6,0-1-0.4-1-1c0-0.1,0-0.2,0-0.3l1.7-5.7c0.1-0.3,0.4-0.6,0.8-0.6
		h0.7v2.4c0,0.1,0,0.2,0.1,0.3l0.8,0.8c0.2,0.2,0.4,0.2,0.6,0c0,0,0,0,0,0l0.8-0.8c0.1-0.1,0.1-0.2,0.1-0.3v-2.4h1.6v2.4
		c0,0.1,0,0.2,0.1,0.3l0.8,0.8c0.2,0.2,0.4,0.2,0.6,0c0,0,0,0,0,0l0.8-0.8c0.1-0.1,0.1-0.2,0.1-0.3v-2.4h0.7c0.4,0,0.7,0.2,0.8,0.6
		l1.7,5.7c0.2,0.5-0.1,1.1-0.7,1.2C371.4,445.8,371.3,445.8,371.2,445.8z"/>
	<path id="Vector-2" class="st0" d="M353.6,441.7l0.2-1l0.8,0.2l-0.2,1L353.6,441.7z"/>
	<path id="Vector-3" class="st0" d="M349.1,446.4c0.1,0.1,0.2,0.2,0.3,0.2h8.4v-0.8h-4.3l0.3-1.5l-0.8-0.2l-0.4,1.7H350l5.3-13.6
		h0.4l-1.7,7.5l0.8,0.2l1.7-7.7h0.5v6.8h0.8v-6.8h0.5l1.2,5.3l0.8-0.2l-1.1-5.1h0.4l1.6,4.1l0.7-0.3l-1.7-4.3l1.6-4.7
		c0-0.1,0-0.3-0.1-0.4l-0.8-1.1c-0.5-0.7-1.6-0.9-2.3-0.3c-0.1,0.1-0.2,0.2-0.3,0.3l-0.9,1.2l-0.9-1.2c-0.6-0.7-1.6-0.8-2.3-0.3
		c-0.1,0.1-0.2,0.2-0.3,0.3l-0.8,1.1c-0.1,0.1-0.1,0.2-0.1,0.4l1.6,4.7l-5.5,14.3C349,446.2,349,446.3,349.1,446.4z M353.8,427.1
		l0.7-0.9c0.3-0.4,0.8-0.4,1.2-0.2c0.1,0,0.1,0.1,0.1,0.1l1.2,1.5c0.1,0.2,0.4,0.2,0.6,0.1c0,0,0,0,0.1-0.1l1.2-1.5
		c0.3-0.4,0.8-0.4,1.2-0.1c0.1,0,0.1,0.1,0.1,0.1l0.7,0.9l-1.4,4.3h-4.2L353.8,427.1z"/>
	<path id="Vector-4" class="st0" d="M357,439.8h0.8v4.8H357V439.8z"/>
</g>
</svg>
