<?xml version="1.0" encoding="utf-8"?>
<!-- Generator: Adobe Illustrator 27.0.0, SVG Export Plug-In . SVG Version: 6.00 Build 0)  -->
<svg version="1.1" id="Layer_1" xmlns="http://www.w3.org/2000/svg" xmlns:xlink="http://www.w3.org/1999/xlink" x="0px" y="0px"
	 viewBox="0 0 50 50.4" style="enable-background:new 0 0 50 50.4;" xml:space="preserve">
<style type="text/css">
	.st0{fill:#FF0000;}
</style>
<g>
	<path class="st0" d="M49.7,16.8c0-0.1,0-0.2-0.1-0.3c-0.4-2.5-1.8-4.3-4-5.3c-1-0.4-2.1-0.6-3.6-0.6c-1.7,0-3.5,0-5.2,0h-2.2V9.5
		c0-0.8,0-1.5,0-2.3c-0.1-1.6-1.3-2.9-3-3.1c-0.3,0-0.6,0-0.9,0h-3.1c-3,0-6.1,0-9.1,0c-1.7,0-3.1,1.3-3.2,3c-0.1,0.8-0.1,1.6,0,2.3
		c0,0.3,0,0.7,0,1v0.1h-0.2c-0.9,0-1.7,0-2.6,0c-2,0-4,0-6.1,0.1s-3.9,1.1-5.1,2.9c-0.8,1.2-1.2,2.7-1.2,4.6v21.3c0,0.3,0,0.6,0,0.9
		c0.2,3,1.6,5,4.1,6.1C5.7,47,7,47.1,8.1,47.1c4.6,0,9.3,0,13.9,0c6.4,0,12.9,0,19.3,0h0.2c0.6,0,1.2,0,1.9-0.1c3-0.4,5-1.9,6-4.5
		c0.1-0.4,0.2-0.8,0.3-1.2c0-0.2,0.1-0.4,0.1-0.5V17.1L49.7,16.8z M18.4,9.9c0-0.9,0-1.8,0-2.7c0-0.1,0-0.2,0.3-0.3
		c0.1,0,0.2,0,0.4,0h11.8c0.1,0,0.2,0,0.3,0c0.4,0,0.4,0.2,0.4,0.4c0,0.9,0,1.7,0,2.6v0.6H18.4V9.9z M46.8,22.6c0,5.6,0,11.3,0,16.9
		c0,0.7-0.1,1.4-0.3,2.1C46,43.1,44.8,43.9,43,44c-0.3,0-0.6,0-0.9,0H20.9c-4.3,0-8.6,0-12.9,0c-0.9,0-1.7-0.1-2.3-0.4
		c-1.4-0.5-2.2-1.6-2.4-3.5c0-0.3,0-0.5,0-0.8v-4.4c0-5.6,0-11.2,0-16.9c0-0.8,0.1-1.5,0.3-2.2C4,14.7,5,13.9,6.7,13.6
		c0.4-0.1,0.8-0.1,1.2-0.1c5.2,0,10.3,0,15.5,0c6.2,0,12.4,0,18.6,0c0.7,0,1.3,0.1,1.8,0.2c1.9,0.5,2.8,1.7,3,3.7c0,0.2,0,0.4,0,0.6
		V22.6z"/>
	<path class="st0" d="M33.4,23.6c-0.8,0-1.6,0-2.3,0H30v-0.8c0-0.9,0-1.7,0-2.6c0-1.4-0.8-2.2-2.2-2.2c-1.8,0-3.6,0-5.4,0
		c-1.4,0-2.2,0.8-2.2,2.2c0,0.7,0,1.4,0,2.1v1.2l0,0h-0.7c-0.9,0-1.8,0-2.7,0c-1.4,0-2.2,0.8-2.2,2.2c0,1.8,0,3.6,0,5.5
		c0,1.4,0.8,2.2,2.2,2.2h3.3v0.7c0,0.9,0,1.8,0,2.6c0,1.4,0.8,2.2,2.2,2.2c0.9,0,1.7,0,2.6,0s1.9,0,2.8,0c1.4,0,2.2-0.8,2.2-2.2
		c0-0.7,0-1.4,0-2.1v-1.2l0,0h0.7c0.9,0,1.8,0,2.8,0c1.3,0,2.1-0.8,2.1-2c0-1.9,0-3.8,0-5.7C35.5,24.4,34.7,23.6,33.4,23.6z
		 M26.9,36H23l0,0v-3.6c0-1.4-0.5-1.9-1.9-1.9h-3.6v-3.8h2.1c0.6,0,1.1,0,1.7,0c1.2,0,1.7-0.6,1.7-1.7c0-0.9,0-1.8,0-2.7v-1.1h3.9
		v3.6c0,1.4,0.5,1.9,1.9,1.9h3.6v3.9h-3.8c-1.2,0-1.8,0.6-1.8,1.8c0,0.9,0,1.8,0,2.7L26.9,36z"/>
</g>
</svg>
