<svg xmlns="http://www.w3.org/2000/svg" width="26" height="19.29" viewBox="0 0 26 19.29">
  <g id="Group_15" data-name="Group 15" transform="translate(-348 -298)">
    <g id="Group">
      <path id="Vector" d="M1.677,0H.419a.419.419,0,1,0,0,.839H1.677a.419.419,0,1,0,0-.839Z" transform="translate(349.258 315.193)" fill="#ff8400"/>
      <path id="Vector-2" data-name="Vector" d="M.839,0H.419a.419.419,0,1,0,0,.839H.839A.419.419,0,1,0,.839,0Z" transform="translate(351.774 315.193)" fill="#ff8400"/>
      <path id="Vector-3" data-name="Vector" d="M24.322,5.032h-.839V1.677A1.68,1.68,0,0,0,21.806,0H4.194A1.679,1.679,0,0,0,2.516,1.677V9.226H1.677A1.679,1.679,0,0,0,0,10.9v6.71A1.679,1.679,0,0,0,1.677,19.29H5.871a1.68,1.68,0,0,0,1.677-1.677V16.355H11.2l-.21.839H9.645a.419.419,0,0,0-.419.419v1.258a.419.419,0,0,0,.419.419H24.322A1.68,1.68,0,0,0,26,17.613V6.71a1.68,1.68,0,0,0-1.677-1.677ZM6.71,17.613a.84.84,0,0,1-.839.839H1.677a.84.84,0,0,1-.839-.839V10.9a.84.84,0,0,1,.839-.839h.536l.324.971a.419.419,0,0,0,.4.287H4.613a.419.419,0,0,0,.4-.287l.324-.971h.536a.84.84,0,0,1,.839.839ZM3.1,10.064H4.45l-.14.419H3.238Zm4.45,5.452V14.258H15.1v1.258Zm7.548.839v.839H15l-.21-.839Zm-.957.839H11.86l.21-.839H13.93Zm-4.076,1.258v-.419H15.15a1.676,1.676,0,0,0,.173.419ZM15.1,6.71v6.71H7.548V10.9A1.68,1.68,0,0,0,5.871,9.226H3.355V1.677A.84.84,0,0,1,4.194.839H21.806a.84.84,0,0,1,.839.839V5.032H16.774A1.68,1.68,0,0,0,15.1,6.71Zm10.064,10.9a.84.84,0,0,1-.839.839H16.774a.84.84,0,0,1-.839-.839V6.71a.84.84,0,0,1,.839-.839h7.548a.84.84,0,0,1,.839.839Z" transform="translate(348 298)" fill="#ff8400"/>
      <path id="Vector-4" data-name="Vector" d="M7.968,0H.419A.419.419,0,0,0,0,.419v9.645a.419.419,0,0,0,.419.419H7.968a.419.419,0,0,0,.419-.419V.419A.419.419,0,0,0,7.968,0ZM7.548,9.645H.839V.839h6.71Z" transform="translate(364.355 304.29)" fill="#ff8400"/>
      <path id="Vector-5" data-name="Vector" d="M.839.419A.419.419,0,1,1,.419,0,.419.419,0,0,1,.839.419Z" transform="translate(367.709 315.193)" fill="#ff8400"/>
    </g>
  </g>
</svg>
