<?xml version="1.0" encoding="utf-8"?>
<!-- Generator: Adobe Illustrator 27.0.0, SVG Export Plug-In . SVG Version: 6.00 Build 0)  -->
<svg version="1.1" id="Layer_1" xmlns="http://www.w3.org/2000/svg" xmlns:xlink="http://www.w3.org/1999/xlink" x="0px" y="0px"
	 viewBox="0 0 30 30" style="enable-background:new 0 0 30 30;" xml:space="preserve">
<style type="text/css">
	.st0{fill:#ED2224;}
</style>
<g>
	<g>
		<path class="st0" d="M13.8,0.1c0.8,0,1.5,0,2.3,0c0.3,0.1,0.6,0.1,0.9,0.1c2.9,0.4,5.4,1.6,7.6,3.5c2.7,2.4,4.4,5.4,5,9
			c0.1,0.4,0,0.7,0.2,1.1c0,0.8,0,1.6,0,2.4c0,0-0.1,0-0.1,0.1c0,0.4-0.1,0.9-0.2,1.3c-0.7,3.6-2.4,6.6-5.2,8.9
			c-3.5,2.8-7.5,3.9-12,3.1c-2.6-0.4-4.9-1.5-6.9-3.2c-3.2-2.7-5-6.1-5.3-10.3c-0.2-2.4,0.1-4.8,1.2-7c2.3-5,6.1-7.9,11.4-8.8
			C13.2,0.2,13.5,0.3,13.8,0.1z M15,2.8C8.3,2.8,2.9,8.3,2.9,15c0,6.7,5.4,12.1,12.1,12.1c6.7,0,12.1-5.4,12.1-12.1
			C27.2,8.3,21.7,2.8,15,2.8z"/>
		<path class="st0" d="M17.3,15c0,1.2-1.1,2.2-2.3,2.2c-1.2,0-2.3-1.1-2.2-2.3c0.1-1.2,1.1-2.2,2.3-2.2C16.3,12.8,17.3,13.8,17.3,15
			z"/>
		<path class="st0" d="M5.6,15c0-1.2,1-2.2,2.3-2.2c1.2,0,2.3,1,2.3,2.3c0,1.2-1.1,2.3-2.3,2.3C6.6,17.2,5.6,16.2,5.6,15z"/>
		<path class="st0" d="M24.5,15c0,1.2-1,2.2-2.2,2.3c-1.2,0-2.2-1-2.3-2.2c0-1.2,1-2.3,2.3-2.3C23.5,12.7,24.5,13.8,24.5,15z"/>
	</g>
</g>
</svg>
