<?xml version="1.0" encoding="utf-8"?>
<!-- Generator: Adobe Illustrator 27.0.0, SVG Export Plug-In . SVG Version: 6.00 Build 0)  -->
<svg version="1.1" id="Layer_1" xmlns="http://www.w3.org/2000/svg" xmlns:xlink="http://www.w3.org/1999/xlink" x="0px" y="0px"
	 viewBox="0 0 24.8 24" style="enable-background:new 0 0 24.8 24;" xml:space="preserve">
<style type="text/css">
	.st0{fill:#FF0000;}
</style>
<g id="Group_19" transform="translate(-349 -527)">
	<path id="Vector" class="st0" d="M357.4,538.2c1.8,0,3.2-1.2,3.2-2.6c0-0.2-0.2-0.4-0.4-0.4s-0.4,0.2-0.4,0.4c-0.1,1-1,1.8-2,1.8
		v-1.3c0,0,0.1,0,0.1-0.1l0.7-0.5c0.3-0.2,0.4-0.5,0.4-0.8c0-0.5-0.4-0.9-0.9-1h-1.4c-0.5,0-0.9,0.4-0.9,1c0,0.3,0.1,0.6,0.4,0.8
		l0.7,0.5c0,0,0.1,0.1,0.1,0.1v1.3c-1,0-1.9-0.8-2-1.8c0-0.2-0.2-0.4-0.4-0.4c-0.2,0-0.4,0.2-0.4,0.4c0,0,0,0,0,0
		C354.2,537,355.6,538.2,357.4,538.2z M356.7,534.9c0,0-0.1-0.1-0.1-0.1c0-0.1,0-0.1,0.1-0.2h1.4c0.1,0,0.1,0.1,0.1,0.2
		c0,0.1,0,0.1-0.1,0.1l-0.7,0.5c0,0-0.1,0-0.1,0L356.7,534.9z"/>
	<path id="Vector-2" class="st0" d="M360.2,533.4c0,0.2-0.2,0.4-0.4,0.4s-0.4-0.2-0.4-0.4c0-0.2,0.2-0.4,0.4-0.4c0,0,0,0,0,0
		C360,533,360.2,533.2,360.2,533.4z"/>
	<path id="Vector-3" class="st0" d="M355.4,533.4c0,0.2-0.2,0.4-0.4,0.4s-0.4-0.2-0.4-0.4c0-0.2,0.2-0.4,0.4-0.4c0,0,0,0,0,0
		C355.2,533,355.4,533.2,355.4,533.4z"/>
	<path id="Vector-4" class="st0" d="M367.8,541.8c0.9,0,1.6-0.7,1.6-1.6s-0.7-1.6-1.6-1.6c-0.9,0-1.6,0.7-1.6,1.6
		c0,0.4,0.2,0.8,0.5,1.1C367,541.6,367.4,541.8,367.8,541.8z M367.8,539.4c0.4,0,0.8,0.4,0.8,0.8c0,0.4-0.4,0.8-0.8,0.8
		c-0.4,0-0.8-0.4-0.8-0.8c0-0.2,0.1-0.4,0.2-0.6C367.4,539.5,367.6,539.4,367.8,539.4z"/>
	<path id="Vector-5" class="st0" d="M373.4,542.6H371v-5.2c0-0.1,0-0.2-0.1-0.2l0,0l-2.8-4c-0.1-0.2-0.4-0.2-0.6-0.1
		c0,0-0.1,0.1-0.1,0.1l-2.8,4c0,0.1-0.1,0.1-0.1,0.2v2.5c-0.6-0.8-1.3-1.4-2.2-1.8c0.9-1.1,1.4-2.5,1.4-3.9c0-0.7-0.1-1.3-0.3-1.9
		c1.4-0.7,1.9-2.4,1.2-3.8c-0.7-1.4-2.4-1.9-3.8-1.2c-0.5,0.3-0.9,0.7-1.2,1.2c-0.7-0.2-1.5-0.3-2.3-0.3c-0.8,0-1.6,0.1-2.3,0.3
		c-0.7-1.4-2.4-1.9-3.8-1.2c-1.4,0.7-1.9,2.4-1.2,3.8c0.3,0.5,0.7,0.9,1.2,1.2c-0.2,0.6-0.3,1.3-0.3,1.9c0,1.4,0.5,2.8,1.4,3.9
		c-1.9,0.9-3.2,2.8-3.3,4.9c0,0,0,0,0,0l0,0.5c0,0,0,0,0,0.1c0.1,1,0.7,1.8,1.6,2.1c-0.3,0.5-0.4,1.1-0.4,1.7
		c-0.1,1.9,1.3,3.5,3.2,3.6c0.9,0,1.8-0.5,2.4-1.2c1,0.5,2.2,0.5,3.2,0c0.6,0.7,1.4,1.2,2.4,1.2c1.3,0,2.4-0.8,2.9-2h9.1
		c0.2,0,0.4-0.2,0.4-0.4V543C373.8,542.8,373.6,542.6,373.4,542.6L373.4,542.6z M367.8,534.1l2,2.9h-4.1L367.8,534.1z M365.4,537.8
		h4.8v4.8h-4.5c-0.1-0.4-0.2-0.8-0.3-1.2V537.8z M364.2,545.7c0.4-0.1,0.7-0.4,1-0.7h0.6v1.6h-1.3
		C364.5,546.3,364.4,546,364.2,545.7L364.2,545.7z M365,543l0,0.5c-0.1,0.7-0.6,1.3-1.2,1.4c-0.5-0.6-1.2-1-2-1.1
		c0-1.5-0.6-3-1.5-4.2c0.6-0.2,1.1-0.6,1.6-1C363.6,539.5,364.8,541.1,365,543L365,543z M362.2,527.8c1.1,0,2,0.9,2,2
		c0,0.7-0.4,1.4-1,1.7c-0.3-0.6-0.7-1.1-1.1-1.6c-0.5-0.5-1-0.8-1.6-1.1C360.8,528.2,361.5,527.8,362.2,527.8z M350.6,529.8
		c0-1.1,0.9-2,2-2c0.7,0,1.4,0.4,1.8,1c-0.6,0.3-1.2,0.7-1.6,1.1c-0.5,0.5-0.8,1-1.1,1.6C351,531.2,350.6,530.5,350.6,529.8z
		 M353.3,530.5c1.1-1,2.6-1.6,4.1-1.5c1.5-0.1,3,0.5,4.1,1.5c1,1,1.5,2.3,1.5,3.7c0,1.4-0.5,2.7-1.5,3.7c-1.1,1-2.6,1.6-4.1,1.5
		c-1.5,0.1-3-0.5-4.1-1.5c-1-1-1.5-2.3-1.5-3.7C351.8,532.8,352.3,531.5,353.3,530.5L353.3,530.5z M349.8,543.5l0-0.5
		c0.2-1.9,1.4-3.6,3.1-4.3c0.5,0.4,1,0.7,1.6,1c-0.9,1.2-1.5,2.7-1.5,4.2c-0.8,0.1-1.5,0.5-2,1.1
		C350.4,544.8,349.9,544.2,349.8,543.5z M353.4,550.2c-1.4-0.1-2.5-1.4-2.4-2.8c-0.1-1.4,1-2.7,2.4-2.8c1.4,0.1,2.5,1.4,2.4,2.8
		C355.9,548.8,354.8,550.1,353.4,550.2z M357.4,549.4c-0.4,0-0.8-0.1-1.2-0.3c0.3-0.5,0.4-1.1,0.4-1.7c0.1-1.7-1.1-3.2-2.8-3.6
		c0-1.4,0.6-2.8,1.5-3.9c0.7,0.2,1.4,0.3,2.1,0.3c0.7,0,1.4-0.1,2.1-0.3c1,1.1,1.5,2.5,1.5,3.9c-1.7,0.3-2.9,1.9-2.8,3.6
		c0,0.6,0.1,1.2,0.4,1.7C358.2,549.3,357.8,549.4,357.4,549.4z M361.4,550.2c-1.4-0.1-2.5-1.4-2.4-2.8c-0.1-1.4,1-2.7,2.4-2.8
		c1.4,0.1,2.5,1.4,2.4,2.8C363.9,548.8,362.8,550.1,361.4,550.2z M364.6,547.4h1.6c0.2,0,0.4-0.2,0.4-0.4v-2.4
		c0-0.2-0.2-0.4-0.4-0.4h-0.5c0.1-0.2,0.1-0.4,0.1-0.6c0,0,0,0,0-0.1l0-0.1h1.6v4.8h-2.9C364.6,547.9,364.6,547.7,364.6,547.4
		L364.6,547.4z M373,548.2h-4.8v-4.8h4.8V548.2z"/>
	<path id="Vector-6" class="st0" d="M369.4,547.4h2.4c0.2,0,0.4-0.2,0.4-0.4c0-0.1,0-0.1,0-0.2l-1.2-2.4c-0.1-0.2-0.3-0.3-0.5-0.2
		c-0.1,0-0.1,0.1-0.2,0.2l-1.2,2.4c-0.1,0.2,0,0.4,0.2,0.5C369.3,547.4,369.3,547.4,369.4,547.4z M370.6,545.5l0.6,1.1h-1.1
		L370.6,545.5z"/>
</g>
<rect x="-10.7" y="-2.9" class="st0" width="11" height="11"/>
</svg>
