<?xml version="1.0" encoding="utf-8"?>
<!-- Generator: Adobe Illustrator 27.0.0, SVG Export Plug-In . SVG Version: 6.00 Build 0)  -->
<svg version="1.1" id="Layer_1" xmlns="http://www.w3.org/2000/svg" xmlns:xlink="http://www.w3.org/1999/xlink" x="0px" y="0px"
	 viewBox="0 0 1000 1000" style="enable-background:new 0 0 1000 1000;" xml:space="preserve">
<style type="text/css">
	.st0{fill:#BF1E2E;}
</style>
<path class="st0" d="M988.1,327.8c-70.4-58.1-139.8-117.5-209.7-176.3c-7.6-6.5-15.6-15.6-24.5-17.1c-36.9-6.2-74.3-9.9-112.3-14.6
	c0.7,22.7,12.1,27.9,30.1,30.6c27.9,4.3,59.4-2.2,82.7,17C820,221.2,884,276.8,948.6,331.8c4.9,4.2,15.6,8.2,7.5,16.8
	c-7.8,8.3-12.7-2-17.7-6.2c-48.2-40.1-97.3-79.3-144.1-121c-36-32.2-73.4-58.5-124.3-55c-6.9,0.5-18.9-9-20.6,4.3
	c-1.8,14.1,12,10,20.2,12c22.8,5.7,48.4-1.1,68.6,15.5c63.2,52.3,126.2,104.9,189.6,157c10.6,8.7,12.2,14.7,2.2,25.9
	c-26.4,29.5-52.1,59.8-76.4,91c-11.9,15.3-19.9,13.1-32.5,1.5c-24.7-22.6-50.7-43.8-79.8-68.6c-0.7,11.2-1.3,16.5-1.3,21.7
	c-0.2,116.3-0.3,232.6-0.5,348.8c-0.1,51-0.2,50.7-51.7,61.7c-90.1,19.3-181.4,18.3-272.6,13.8c-43-2.2-86.2-7.1-128-19.9
	c-19.2-5.9-27.5-15-27.3-37c1.2-118.1,0.7-236.3,0.5-354.4c-0.1-9.7,2.7-19.9-3.8-31.4c-26.6,22.2-52.8,43.5-78.2,65.7
	c-12.1,10.5-19.9,14-31.9-2.1c-22.6-30.2-47.4-59.1-73.1-86.7c-13.4-14.4-9.1-21.6,3.7-32.2c58.9-48.9,117.3-98.3,175.7-147.8
	c12.2-10.4,24.7-17.9,41.8-17.9c15.5-0.1,31-3.9,46.5-5.8c5.6-0.6,8.2-3.6,8.5-8.8c0.3-5.7-3-8.6-8.5-7.7
	c-34.6,5.9-70.7,1.1-100.9,28.2c-57,51.1-116.6,99.2-175.4,148.2c-5.5,4.5-11.3,17-20,7.6C34,337.3,49.7,333.2,55,328.6
	c50.3-43.3,103.4-83.6,151.4-129.2c35.2-33.3,74.2-49.2,121.1-49.3c19.6-0.1,29.9-8.2,30.8-30.7c-30.9,4.2-60,7.8-89.1,12.4
	c-11.4,1.8-23.5-0.9-34.1,8.1C160,203.9,84.7,267.6,8.8,330.7c-12.9,10.8-10.1,18.7-1.1,29.4c46.4,55,92.5,110.1,138.5,165.4
	c7.1,8.4,12.1,10.9,21.7,1.8c17.9-16.9,37.6-31.9,62-52.3c0,17.2,0,26.2,0,35.3c0,93.2-0.2,186.5,0.1,279.7
	c0.2,57.8,6.6,65.1,61.8,79.5c54,14.1,109.2,17,164.4,19.1c88.6,3.4,177.1,0.3,263.6-22.3c43.9-11.6,50.2-21.6,50.2-66
	c0-96.9,0-193.8,0.1-290.7c0-9.7,0.8-19.3,1.4-33.3c20.4,16.9,38,30,53.8,45.1c13.3,12.7,21,13.6,33.8-2.4
	c42.6-53.3,86.4-105.7,131.5-156.9C1004,347,1003,340.2,988.1,327.8L988.1,327.8z M383.2,182.1c11.1-10,16.8-7.2,25.3,4
	c52.1,68.1,130.7,68.3,183.4,0.2c8.6-11,13.4-15.6,24.8-4.4c13.3,13.1,15.5,4.1,16.4-8.9c1.8-27.6-4.5-50.2-32.9-62.1
	c-24.5,74.7-54.1,103.9-102.9,102.4c-48.6-1.5-79.9-34.6-96.1-103.3c-31.6,21.5-36.3,30.9-35.5,61.7
	C366,186,368.1,195.6,383.2,182.1L383.2,182.1z M587.7,320.1c0.8,17.7,20,44.8,33,44.7c12.2,0,32.2-25.9,32.4-44.2
	c3.1-15.5-2.4-27.8-22.7-22.5C615.1,302.1,585.8,281.5,587.7,320.1z"/>
</svg>
