<svg xmlns="http://www.w3.org/2000/svg" width="22" height="22" viewBox="0 0 22 22">
  <g id="Group_20" data-name="Group 20" transform="translate(-350 -655)">
    <g id="Group">
      <path id="Vector" d="M7.477-10.312H2.836A2.839,2.839,0,0,0,0-7.477v4.641A2.839,2.839,0,0,0,2.836,0H7.477a2.839,2.839,0,0,0,2.836-2.836V-7.477A2.839,2.839,0,0,0,7.477-10.312ZM2.836-1.375A1.463,1.463,0,0,1,1.375-2.836V-7.477A1.463,1.463,0,0,1,2.836-8.937H7.477A1.463,1.463,0,0,1,8.938-7.477v4.641A1.463,1.463,0,0,1,7.477-1.375Z" transform="translate(372 655) rotate(180)" fill="#ff8400"/>
      <path id="Vector-2" data-name="Vector" d="M7.477-10.312H2.836A2.839,2.839,0,0,0,0-7.477v4.641A2.839,2.839,0,0,0,2.836,0H7.477a2.839,2.839,0,0,0,2.836-2.836V-7.477A2.839,2.839,0,0,0,7.477-10.312ZM2.836-1.375A1.463,1.463,0,0,1,1.375-2.836V-7.477A1.463,1.463,0,0,1,2.836-8.937H7.477A1.463,1.463,0,0,1,8.938-7.477v4.641A1.463,1.463,0,0,1,7.477-1.375Z" transform="translate(360.313 655) rotate(180)" fill="#ff8400"/>
      <path id="Vector-3" data-name="Vector" d="M5.156-10.312A5.162,5.162,0,0,0,0-5.156,5.162,5.162,0,0,0,5.156,0a5.162,5.162,0,0,0,5.156-5.156A5.162,5.162,0,0,0,5.156-10.312Zm0,8.938A3.786,3.786,0,0,1,1.375-5.156,3.786,3.786,0,0,1,5.156-8.937,3.786,3.786,0,0,1,8.938-5.156,3.786,3.786,0,0,1,5.156-1.375Z" transform="translate(360.313 666.688) rotate(180)" fill="#ff8400"/>
      <path id="Vector-4" data-name="Vector" d="M7.477-10.312H2.836A2.839,2.839,0,0,0,0-7.477v4.641A2.839,2.839,0,0,0,2.836,0H7.477a2.839,2.839,0,0,0,2.836-2.836V-7.477A2.839,2.839,0,0,0,7.477-10.312ZM2.836-1.375A1.463,1.463,0,0,1,1.375-2.836V-7.477A1.463,1.463,0,0,1,2.836-8.937H7.477A1.463,1.463,0,0,1,8.938-7.477v4.641A1.463,1.463,0,0,1,7.477-1.375Z" transform="translate(372 666.688) rotate(180)" fill="#ff8400"/>
    </g>
  </g>
</svg>
