<?xml version="1.0" encoding="utf-8"?>
<!-- Generator: Adobe Illustrator 23.1.0, SVG Export Plug-In . SVG Version: 6.00 Build 0)  -->
<svg version="1.1" id="Layer_1" xmlns="http://www.w3.org/2000/svg" xmlns:xlink="http://www.w3.org/1999/xlink" x="0px" y="0px"
	 viewBox="0 0 1000 1000" style="enable-background:new 0 0 1000 1000;" xml:space="preserve">
<style type="text/css">
	.st0{fill:#FF8400;}
</style>
<title>jewlery</title>
<path class="st0" d="M596,251.5c0.2-0.3,0.6-0.6,0.7-0.9l66.1-117.3c2.3-4.3,0.6-9.2-4.1-11l-151-57.1c-2.6-1.1-4.9-1.8-6.3-2.5
	l-0.8-0.2c-0.4-0.2-1.2-0.2-1.7,0c-0.4,0-0.6,0.2-0.6,0.2c-1.7,0.6-3.7,1.4-6.3,2.5l-151.4,57.1c-4.5,1.8-6.3,6.7-3.9,11l65.9,117.4
	l0.7,1.1C257.3,294,150,428.2,150,587.5c0,193.1,156.8,349.9,349.8,349.9s349.8-156.8,349.8-349.9
	C849.4,428.2,742.3,293.5,596,251.5z M499.7,856c-147.9,0-268.2-120.3-268.2-268.4c0-147.9,120.3-268.2,268.2-268.2
	c148.1,0,268.2,120.3,268.2,268.2C767.8,735.7,647.8,856,499.7,856z"/>
</svg>
